G04 Layer: TopSilkscreenLayer*
G04 EasyEDA v6.5.57, 2026-07-29 17:24:11*
G04 3cdf865fdb494c7eb167d1648e5b087d,9feac46d8a1c452b917311370b5def0f,10*
G04 Gerber Generator version 0.2*
G04 Scale: 100 percent, Rotated: No, Reflected: No *
G04 Dimensions in millimeters *
G04 leading zeros omitted , absolute positions ,4 integer and 5 decimal *
%FSLAX45Y45*%
%MOMM*%

%ADD10C,0.2540*%
%ADD11C,0.1524*%
%ADD12C,0.0169*%

%LPD*%
G36*
X7042048Y-175310D02*
G01*
X7030161Y-189636D01*
X7039660Y-204724D01*
X7060336Y-204724D01*
X7069836Y-189636D01*
X7057948Y-175310D01*
G37*
G36*
X6321399Y-201879D02*
G01*
X6315557Y-225196D01*
X6326733Y-238658D01*
X6342583Y-238658D01*
X6353454Y-225552D01*
X6350508Y-204724D01*
G37*
G36*
X8458047Y-216052D02*
G01*
X8451291Y-216763D01*
X8392972Y-229412D01*
X8343747Y-253441D01*
X8282838Y-310896D01*
X8255203Y-363118D01*
X8240725Y-412292D01*
X8240877Y-485292D01*
X8253374Y-532282D01*
X8279231Y-584657D01*
X8338108Y-643686D01*
X8389467Y-668528D01*
X8436914Y-678688D01*
X8541816Y-674827D01*
X8602929Y-645515D01*
X8658047Y-594461D01*
X8684361Y-548640D01*
X8684463Y-542848D01*
X8650478Y-560273D01*
X8601151Y-574700D01*
X8528253Y-569976D01*
X8478418Y-550214D01*
X8430158Y-513842D01*
X8396224Y-461416D01*
X8380069Y-409956D01*
X8383727Y-325678D01*
X8417204Y-258064D01*
X8458047Y-220370D01*
G37*
G36*
X5864402Y-225094D02*
G01*
X5858713Y-243078D01*
X5864352Y-252221D01*
X5885484Y-252221D01*
X5891123Y-237490D01*
X5880811Y-225094D01*
G37*
G36*
X5026863Y-288442D02*
G01*
X5012639Y-302666D01*
X5012639Y-314960D01*
X5026863Y-329184D01*
X5039156Y-329184D01*
X5053380Y-314960D01*
X5053380Y-305968D01*
X5043982Y-288442D01*
G37*
G36*
X2948736Y-297484D02*
G01*
X2934512Y-311708D01*
X2934512Y-318363D01*
X2946349Y-334568D01*
X2968447Y-331419D01*
X2971393Y-310540D01*
X2960573Y-297484D01*
G37*
G36*
X4107738Y-311048D02*
G01*
X4100322Y-311353D01*
X4084472Y-320548D01*
X4084472Y-342544D01*
X4106519Y-356971D01*
X4125214Y-346964D01*
X4125214Y-320446D01*
G37*
G36*
X6756857Y-315112D02*
G01*
X6751472Y-329184D01*
X6756857Y-343255D01*
X6780631Y-340461D01*
X6780631Y-317855D01*
G37*
G36*
X2012696Y-333705D02*
G01*
X2001824Y-344576D01*
X2001824Y-359714D01*
X2014982Y-370636D01*
X2033524Y-364744D01*
X2033524Y-344576D01*
X2022652Y-333705D01*
G37*
G36*
X735939Y-351790D02*
G01*
X725068Y-362661D01*
X725068Y-378612D01*
X742543Y-387959D01*
X756412Y-382625D01*
X762050Y-364947D01*
X751128Y-351790D01*
G37*
G36*
X1617624Y-369874D02*
G01*
X1603400Y-384098D01*
X1603400Y-401066D01*
X1623517Y-415137D01*
X1605229Y-415137D01*
X1594358Y-426008D01*
X1594358Y-451561D01*
X1617573Y-460400D01*
X1635099Y-451053D01*
X1635099Y-424738D01*
X1625600Y-418846D01*
X1648663Y-397459D01*
X1648663Y-384098D01*
X1634439Y-369874D01*
G37*
G36*
X4713528Y-378968D02*
G01*
X4708296Y-392531D01*
X4713528Y-406095D01*
X4735474Y-406095D01*
X4740706Y-392531D01*
X4735474Y-378968D01*
G37*
G36*
X5306872Y-405485D02*
G01*
X5301437Y-419658D01*
X5306872Y-433882D01*
X5327294Y-430987D01*
X5327294Y-408381D01*
G37*
G36*
X1028395Y-410616D02*
G01*
X1003503Y-411683D01*
X971803Y-423672D01*
X937869Y-424230D01*
X937869Y-455879D01*
X969568Y-455879D01*
X969568Y-519938D01*
X940104Y-513334D01*
X899363Y-515213D01*
X860501Y-537972D01*
X834593Y-573735D01*
X823518Y-619912D01*
X826944Y-653084D01*
X888085Y-653084D01*
X888085Y-602945D01*
X897839Y-567842D01*
X919327Y-546404D01*
X958240Y-546506D01*
X969822Y-553872D01*
X967282Y-683463D01*
X942543Y-701903D01*
X908456Y-693470D01*
X888085Y-653084D01*
X826944Y-653084D01*
X829056Y-673201D01*
X846937Y-708152D01*
X875182Y-731926D01*
X897585Y-737565D01*
X942949Y-733196D01*
X970229Y-713079D01*
X975156Y-731926D01*
X1055573Y-731926D01*
X1055573Y-700278D01*
X1028395Y-700278D01*
G37*
G36*
X1789023Y-410616D02*
G01*
X1768652Y-410768D01*
X1755089Y-419404D01*
X1703019Y-425348D01*
X1703019Y-455879D01*
X1730197Y-455879D01*
X1730197Y-690575D01*
X1707540Y-708355D01*
X1707540Y-731926D01*
X1816201Y-731926D01*
X1816201Y-700278D01*
X1789023Y-700278D01*
X1789023Y-569214D01*
X1809902Y-555599D01*
X1838248Y-549910D01*
X1860600Y-572262D01*
X1867154Y-642315D01*
X1859229Y-697992D01*
X1838858Y-706932D01*
X1838858Y-731926D01*
X1952040Y-731926D01*
X1952040Y-700278D01*
X1924862Y-700278D01*
X1924862Y-592074D01*
X1914855Y-545490D01*
X1890928Y-519176D01*
X1848307Y-511454D01*
X1804873Y-526897D01*
X1789023Y-533806D01*
G37*
G36*
X2440990Y-410616D02*
G01*
X2420620Y-411581D01*
X2384399Y-423519D01*
X2354986Y-424230D01*
X2354986Y-455879D01*
X2382113Y-455879D01*
X2382113Y-677062D01*
X2373579Y-699465D01*
X2354986Y-705408D01*
X2354986Y-731926D01*
X2468168Y-731926D01*
X2468168Y-700278D01*
X2440990Y-700278D01*
X2440990Y-568909D01*
X2470404Y-550570D01*
X2497480Y-555650D01*
X2511196Y-569315D01*
X2514193Y-678434D01*
X2508910Y-699668D01*
X2490825Y-705408D01*
X2490825Y-731926D01*
X2599486Y-731926D01*
X2599486Y-700278D01*
X2574137Y-700278D01*
X2577795Y-616204D01*
X2567584Y-550316D01*
X2552852Y-527812D01*
X2526842Y-514400D01*
X2487828Y-513588D01*
X2444394Y-532790D01*
X2440990Y-532790D01*
G37*
G36*
X3065780Y-410616D02*
G01*
X3040888Y-411683D01*
X3009188Y-423672D01*
X2979775Y-424230D01*
X2979775Y-455879D01*
X3006953Y-455879D01*
X3006953Y-519938D01*
X2977489Y-513334D01*
X2936748Y-515213D01*
X2897886Y-537972D01*
X2871622Y-574192D01*
X2861005Y-625195D01*
X2864323Y-653084D01*
X2925419Y-653084D01*
X2925470Y-602945D01*
X2935224Y-567842D01*
X2956712Y-546404D01*
X2995625Y-546506D01*
X3007207Y-553872D01*
X3004667Y-683463D01*
X2979928Y-701903D01*
X2945841Y-693470D01*
X2925419Y-653084D01*
X2864323Y-653084D01*
X2866745Y-673760D01*
X2884322Y-708152D01*
X2912567Y-731926D01*
X2934970Y-737565D01*
X2980334Y-733196D01*
X3007563Y-713079D01*
X3012541Y-731926D01*
X3092958Y-731926D01*
X3092958Y-700278D01*
X3065780Y-700278D01*
G37*
G36*
X4156913Y-410616D02*
G01*
X4136542Y-410768D01*
X4122978Y-419404D01*
X4070908Y-425348D01*
X4070908Y-455879D01*
X4098086Y-455879D01*
X4098086Y-684682D01*
X4083964Y-704799D01*
X4070908Y-704799D01*
X4070908Y-731926D01*
X4184091Y-731926D01*
X4184091Y-700278D01*
X4156913Y-700278D01*
X4156913Y-636879D01*
X4169460Y-636879D01*
X4224985Y-713282D01*
X4248708Y-731926D01*
X4306316Y-731926D01*
X4306316Y-705408D01*
X4288231Y-699668D01*
X4228592Y-623316D01*
X4209288Y-609803D01*
X4268063Y-552450D01*
X4297273Y-546608D01*
X4297273Y-519226D01*
X4202176Y-519226D01*
X4202176Y-550926D01*
X4225442Y-550926D01*
X4178198Y-605231D01*
X4156913Y-605231D01*
G37*
G36*
X4632655Y-410616D02*
G01*
X4607407Y-411683D01*
X4575708Y-423672D01*
X4541774Y-424230D01*
X4541774Y-455879D01*
X4574540Y-455879D01*
X4569053Y-476250D01*
X4568952Y-695909D01*
X4546295Y-706221D01*
X4546295Y-731926D01*
X4654956Y-731926D01*
X4654956Y-700278D01*
X4630064Y-700278D01*
G37*
G36*
X3882999Y-411530D02*
G01*
X3851300Y-423672D01*
X3817365Y-424230D01*
X3817365Y-455879D01*
X3846779Y-455879D01*
X3844340Y-679907D01*
X3839972Y-699668D01*
X3821887Y-705408D01*
X3821887Y-731926D01*
X3930548Y-731926D01*
X3930548Y-700278D01*
X3902354Y-700278D01*
X3907790Y-679907D01*
X3907891Y-636879D01*
X3919220Y-637184D01*
X3959961Y-697687D01*
X3992524Y-731926D01*
X4052773Y-731926D01*
X4052773Y-707034D01*
X4021683Y-682244D01*
X3978910Y-625602D01*
X3960571Y-610717D01*
X3998722Y-565150D01*
X4037533Y-546404D01*
X4048251Y-546404D01*
X4048251Y-519226D01*
X3953205Y-519226D01*
X3953205Y-550926D01*
X3972001Y-550926D01*
X3928313Y-604723D01*
X3908094Y-605231D01*
X3905656Y-412902D01*
G37*
G36*
X662025Y-424230D02*
G01*
X653745Y-440029D01*
X590551Y-614273D01*
X629970Y-614273D01*
X629970Y-605739D01*
X657148Y-524713D01*
X657148Y-510184D01*
X663956Y-510387D01*
X693928Y-602945D01*
X698652Y-614273D01*
X590551Y-614273D01*
X570026Y-670864D01*
X557377Y-695604D01*
X534924Y-701243D01*
X534924Y-731926D01*
X625449Y-731926D01*
X625449Y-694994D01*
X598322Y-700989D01*
X598322Y-693470D01*
X615442Y-648208D01*
X668477Y-642416D01*
X707440Y-641451D01*
X720547Y-672795D01*
X720547Y-695655D01*
X702411Y-706983D01*
X702411Y-731926D01*
X815594Y-731926D01*
X815594Y-700278D01*
X792683Y-700278D01*
X787857Y-684428D01*
X741883Y-562254D01*
X687679Y-424230D01*
G37*
G36*
X3513734Y-424230D02*
G01*
X3508756Y-437134D01*
X3511753Y-458165D01*
X3540607Y-460959D01*
X3550564Y-442315D01*
X3540861Y-424230D01*
G37*
G36*
X2078786Y-433273D02*
G01*
X2078786Y-533400D01*
X2103475Y-530555D01*
X2110232Y-489813D01*
X2137816Y-464921D01*
X2173884Y-464921D01*
X2173884Y-690575D01*
X2159660Y-704799D01*
X2146706Y-704799D01*
X2146706Y-731926D01*
X2268931Y-731926D01*
X2268931Y-700278D01*
X2237282Y-700278D01*
X2237282Y-464921D01*
X2277516Y-464921D01*
X2301544Y-485597D01*
X2312924Y-530555D01*
X2336850Y-533400D01*
X2336850Y-433273D01*
G37*
G36*
X7454442Y-437337D02*
G01*
X7443165Y-450900D01*
X7449058Y-469442D01*
X7475880Y-469442D01*
X7481570Y-454659D01*
X7472425Y-440029D01*
G37*
G36*
X468477Y-441858D02*
G01*
X457200Y-455472D01*
X462940Y-473506D01*
X481025Y-479247D01*
X494639Y-467969D01*
X491896Y-444550D01*
G37*
G36*
X4417263Y-511403D02*
G01*
X4379214Y-518718D01*
X4358386Y-529437D01*
X4338472Y-547522D01*
X4332681Y-573887D01*
X4347311Y-596188D01*
X4370324Y-596188D01*
X4387850Y-586790D01*
X4387850Y-550672D01*
X4411116Y-541832D01*
X4433366Y-547420D01*
X4442155Y-563880D01*
X4442155Y-604062D01*
X4395012Y-610311D01*
X4351375Y-629056D01*
X4329328Y-655269D01*
X4323765Y-684885D01*
X4387850Y-684885D01*
X4387850Y-661111D01*
X4409897Y-640384D01*
X4439920Y-634238D01*
X4442714Y-679805D01*
X4423054Y-695756D01*
X4398721Y-695756D01*
X4387850Y-684885D01*
X4323765Y-684885D01*
X4323537Y-686104D01*
X4334408Y-719074D01*
X4362907Y-736447D01*
X4407408Y-736447D01*
X4446676Y-713435D01*
X4446676Y-731926D01*
X4528159Y-731926D01*
X4528159Y-700278D01*
X4501032Y-700278D01*
X4501032Y-569620D01*
X4491380Y-544118D01*
X4467758Y-519328D01*
G37*
G36*
X1166114Y-511505D02*
G01*
X1116685Y-523849D01*
X1087272Y-555294D01*
X1087272Y-581964D01*
X1101496Y-596188D01*
X1126591Y-596188D01*
X1142796Y-578307D01*
X1137412Y-551484D01*
X1168298Y-541324D01*
X1186688Y-551129D01*
X1195933Y-568401D01*
X1195933Y-604012D01*
X1152906Y-609854D01*
X1111504Y-623519D01*
X1080465Y-655523D01*
X1080465Y-686358D01*
X1137056Y-686358D01*
X1137056Y-667969D01*
X1146352Y-650697D01*
X1166520Y-639876D01*
X1193647Y-634238D01*
X1196492Y-679805D01*
X1176832Y-695756D01*
X1154582Y-695756D01*
X1137056Y-686358D01*
X1080465Y-686358D01*
X1080465Y-710031D01*
X1111148Y-737463D01*
X1168552Y-733806D01*
X1195578Y-713841D01*
X1200454Y-713841D01*
X1200454Y-731926D01*
X1281938Y-731926D01*
X1281938Y-700278D01*
X1252524Y-700227D01*
X1252524Y-562254D01*
X1234084Y-530860D01*
X1207262Y-515721D01*
G37*
G36*
X3692855Y-511759D02*
G01*
X3655060Y-518668D01*
X3627983Y-532638D01*
X3609086Y-556666D01*
X3609086Y-576072D01*
X3623208Y-596188D01*
X3649218Y-596188D01*
X3664000Y-581406D01*
X3661156Y-553466D01*
X3683812Y-541782D01*
X3706418Y-546862D01*
X3717747Y-561695D01*
X3717747Y-604062D01*
X3670604Y-610311D01*
X3627018Y-629056D01*
X3604920Y-655269D01*
X3599129Y-686104D01*
X3599669Y-687730D01*
X3662273Y-687730D01*
X3662273Y-663143D01*
X3684930Y-640537D01*
X3715512Y-634238D01*
X3718306Y-679805D01*
X3698646Y-695756D01*
X3674770Y-695604D01*
X3662273Y-687730D01*
X3599669Y-687730D01*
X3609441Y-717296D01*
X3627526Y-733653D01*
X3681171Y-737514D01*
X3722268Y-713435D01*
X3722268Y-731926D01*
X3803802Y-731926D01*
X3803802Y-700278D01*
X3777234Y-700278D01*
X3774338Y-556056D01*
X3755288Y-530555D01*
X3729075Y-515772D01*
G37*
G36*
X2701340Y-514248D02*
G01*
X2662631Y-533857D01*
X2635351Y-566775D01*
X2622510Y-610666D01*
X2684322Y-610666D01*
X2690774Y-567537D01*
X2716479Y-541883D01*
X2737815Y-541883D01*
X2757017Y-555345D01*
X2771495Y-597763D01*
X2771495Y-666343D01*
X2755646Y-697839D01*
X2730754Y-711555D01*
X2706319Y-697890D01*
X2688945Y-668172D01*
X2684322Y-610666D01*
X2622510Y-610666D01*
X2620975Y-615899D01*
X2625852Y-669442D01*
X2651556Y-711555D01*
X2700680Y-736447D01*
X2756154Y-736447D01*
X2802229Y-713536D01*
X2824276Y-679907D01*
X2834894Y-649122D01*
X2834894Y-593293D01*
X2810002Y-544169D01*
X2770784Y-516991D01*
G37*
G36*
X1385671Y-514705D02*
G01*
X1365707Y-515416D01*
X1334008Y-527608D01*
X1300073Y-528269D01*
X1300073Y-559968D01*
X1330045Y-559968D01*
X1326184Y-693470D01*
X1317040Y-704799D01*
X1304594Y-704799D01*
X1304594Y-731926D01*
X1413256Y-731926D01*
X1413256Y-700278D01*
X1388364Y-700278D01*
X1392885Y-584860D01*
X1406042Y-565048D01*
X1426667Y-554024D01*
X1445615Y-578053D01*
X1470710Y-578053D01*
X1487068Y-560019D01*
X1486255Y-530606D01*
X1466596Y-514705D01*
X1435303Y-514705D01*
X1415491Y-524865D01*
X1391716Y-547014D01*
G37*
G36*
X1607362Y-514705D02*
G01*
X1555851Y-514908D01*
X1521815Y-534619D01*
X1502867Y-573836D01*
X1509064Y-606856D01*
X1537766Y-635254D01*
X1610207Y-664921D01*
X1630578Y-677824D01*
X1630578Y-695502D01*
X1608226Y-710133D01*
X1573225Y-704240D01*
X1543608Y-686257D01*
X1533499Y-659536D01*
X1507947Y-659536D01*
X1510588Y-734212D01*
X1540002Y-737057D01*
X1540002Y-723290D01*
X1577390Y-736447D01*
X1626311Y-736447D01*
X1655876Y-724103D01*
X1680362Y-695045D01*
X1680260Y-657250D01*
X1669034Y-635508D01*
X1637385Y-610006D01*
X1569466Y-585978D01*
X1553616Y-572160D01*
X1553616Y-556869D01*
X1571498Y-540664D01*
X1608836Y-545642D01*
X1631442Y-566775D01*
X1644396Y-591667D01*
X1666798Y-591667D01*
X1666798Y-514705D01*
X1635861Y-514705D01*
X1632661Y-524306D01*
G37*
G36*
X3196539Y-514705D02*
G01*
X3172206Y-515772D01*
X3140506Y-527761D01*
X3106521Y-528269D01*
X3106521Y-559968D01*
X3138220Y-559968D01*
X3138424Y-684428D01*
X3155645Y-722274D01*
X3183077Y-736447D01*
X3232048Y-736447D01*
X3265424Y-713841D01*
X3274060Y-713841D01*
X3274060Y-731926D01*
X3355543Y-731926D01*
X3355543Y-700278D01*
X3328415Y-700278D01*
X3328415Y-514705D01*
X3307994Y-514858D01*
X3271774Y-527913D01*
X3237839Y-528269D01*
X3237839Y-559968D01*
X3269792Y-559968D01*
X3267252Y-679551D01*
X3236518Y-700278D01*
X3216605Y-700278D01*
X3199333Y-681228D01*
G37*
G36*
X4719472Y-514705D02*
G01*
X4708550Y-527862D01*
X4711547Y-543153D01*
X4727397Y-553161D01*
X4743246Y-543153D01*
X4746244Y-527862D01*
X4735322Y-514705D01*
G37*
G36*
X3364636Y-519226D02*
G01*
X3364636Y-549859D01*
X3382721Y-554583D01*
X3382721Y-568248D01*
X3456787Y-731926D01*
X3494735Y-731926D01*
X3555644Y-581660D01*
X3573272Y-551738D01*
X3586479Y-546658D01*
X3586479Y-519226D01*
X3509467Y-519226D01*
X3509467Y-550926D01*
X3533089Y-550926D01*
X3526332Y-566775D01*
X3489960Y-664464D01*
X3483660Y-657250D01*
X3450640Y-573481D01*
X3450640Y-550621D01*
X3464204Y-545439D01*
X3464204Y-519226D01*
G37*
G36*
X6639814Y-532790D02*
G01*
X6628942Y-543661D01*
X6628942Y-554329D01*
X6641388Y-564642D01*
X6656120Y-559003D01*
X6656120Y-538327D01*
X6641795Y-532790D01*
G37*
G36*
X6887362Y-587146D02*
G01*
X6877964Y-604570D01*
X6892594Y-619201D01*
X6902196Y-616000D01*
X6911086Y-601929D01*
X6905396Y-587146D01*
G37*
G36*
X5733999Y-650494D02*
G01*
X5727954Y-656539D01*
X5727954Y-675843D01*
X5738825Y-686663D01*
X5755335Y-686663D01*
X5765546Y-664311D01*
X5754014Y-650494D01*
G37*
G36*
X4645152Y-772668D02*
G01*
X4639106Y-772820D01*
X4627016Y-780491D01*
X4630064Y-801166D01*
X4645152Y-810615D01*
X4659477Y-798728D01*
X4659477Y-778154D01*
G37*
G36*
X1966264Y-781710D02*
G01*
X1952040Y-795934D01*
X1952040Y-803706D01*
X1966264Y-817930D01*
X1970735Y-817930D01*
X1988261Y-808583D01*
X1988261Y-791108D01*
X1970735Y-781710D01*
G37*
G36*
X1332382Y-795324D02*
G01*
X1318158Y-809498D01*
X1318158Y-814019D01*
X1327556Y-831494D01*
X1349552Y-831494D01*
X1358900Y-814019D01*
X1358900Y-809498D01*
X1344676Y-795324D01*
G37*
G36*
X2728010Y-799439D02*
G01*
X2711907Y-817168D01*
X2714904Y-838098D01*
X2739999Y-846886D01*
X2760116Y-826769D01*
X2746298Y-802081D01*
G37*
G36*
X5284622Y-799846D02*
G01*
X5275580Y-816660D01*
X5287162Y-832510D01*
X5303672Y-829259D01*
X5313172Y-814171D01*
X5301284Y-799846D01*
G37*
G36*
X2237486Y-804367D02*
G01*
X2223465Y-825703D01*
X2229256Y-840790D01*
X2246325Y-849934D01*
X2263343Y-840790D01*
X2269185Y-825703D01*
X2255164Y-804367D01*
G37*
G36*
X7544968Y-826566D02*
G01*
X7532725Y-841298D01*
X7542225Y-856386D01*
X7563866Y-856386D01*
X7563866Y-829259D01*
G37*
G36*
X6503263Y-826973D02*
G01*
X6492443Y-840079D01*
X6495389Y-860907D01*
X6519672Y-863701D01*
X6529679Y-845058D01*
X6519976Y-826973D01*
G37*
G36*
X6053683Y-840536D02*
G01*
X6048654Y-853592D01*
X6051804Y-869950D01*
X6073343Y-869950D01*
X6082842Y-854913D01*
X6070955Y-840536D01*
G37*
G36*
X6357010Y-1012545D02*
G01*
X6351778Y-1026109D01*
X6357010Y-1039672D01*
X6378956Y-1039672D01*
X6384645Y-1024940D01*
X6374282Y-1012545D01*
G37*
G36*
X6793687Y-1093978D02*
G01*
X6777380Y-1105916D01*
X6780733Y-1123391D01*
X6807809Y-1123391D01*
X6810857Y-1101801D01*
X6798716Y-1094130D01*
G37*
G36*
X2715717Y-1166418D02*
G01*
X2705862Y-1166774D01*
X2674162Y-1184808D01*
X2694533Y-1179372D01*
X2694482Y-1204874D01*
X2665146Y-1356055D01*
X2680411Y-1356055D01*
X2695244Y-1305052D01*
X2725318Y-1275029D01*
X2748330Y-1275029D01*
X2754477Y-1284884D01*
X2753969Y-1318615D01*
X2738780Y-1356614D01*
X2715971Y-1374597D01*
X2690317Y-1374597D01*
X2680411Y-1356055D01*
X2665146Y-1356055D01*
X2663748Y-1363268D01*
X2671876Y-1378508D01*
X2690774Y-1384503D01*
X2721914Y-1378661D01*
X2753918Y-1350518D01*
X2770733Y-1317599D01*
X2777032Y-1284020D01*
X2762250Y-1261414D01*
X2737561Y-1261516D01*
X2712466Y-1278026D01*
X2690012Y-1308455D01*
X2690114Y-1304442D01*
G37*
G36*
X2481478Y-1179982D02*
G01*
X2475992Y-1194155D01*
X2486253Y-1204417D01*
X2486253Y-1228750D01*
X2470302Y-1248460D01*
X2445867Y-1239164D01*
X2416098Y-1249070D01*
X2386482Y-1276959D01*
X2383263Y-1288897D01*
X2395169Y-1288897D01*
X2410714Y-1256080D01*
X2429662Y-1248410D01*
X2435453Y-1247851D01*
X2455976Y-1264462D01*
X2397963Y-1312773D01*
X2395169Y-1288897D01*
X2383263Y-1288897D01*
X2376728Y-1313129D01*
X2386888Y-1347012D01*
X2409952Y-1374394D01*
X2446528Y-1384249D01*
X2482799Y-1378102D01*
X2518003Y-1346301D01*
X2530348Y-1304442D01*
X2558542Y-1307236D01*
X2572715Y-1293114D01*
X2573020Y-1293114D01*
X2572969Y-1292860D01*
X2581960Y-1283868D01*
X2579065Y-1268984D01*
X2566822Y-1264869D01*
X2572969Y-1292860D01*
X2572715Y-1293114D01*
X2555087Y-1293114D01*
X2506624Y-1270558D01*
X2492044Y-1270457D01*
X2468168Y-1289253D01*
X2468168Y-1311198D01*
X2482443Y-1311198D01*
X2476500Y-1284071D01*
X2500325Y-1284071D01*
X2527147Y-1297940D01*
X2521204Y-1322527D01*
X2509215Y-1346352D01*
X2479903Y-1370990D01*
X2431745Y-1367028D01*
X2405227Y-1341628D01*
X2396540Y-1316685D01*
X2438755Y-1286662D01*
X2487168Y-1241196D01*
X2499868Y-1216609D01*
X2499868Y-1190853D01*
X2488996Y-1179982D01*
G37*
G36*
X6221780Y-1198067D02*
G01*
X6213195Y-1214170D01*
X6221933Y-1229766D01*
X6239256Y-1229766D01*
X6247892Y-1213662D01*
X6239154Y-1198067D01*
G37*
G36*
X1811629Y-1201928D02*
G01*
X1805939Y-1216761D01*
X1815592Y-1226413D01*
X1830476Y-1220724D01*
X1827428Y-1204976D01*
G37*
G36*
X3052165Y-1201928D02*
G01*
X3046882Y-1215745D01*
X3052724Y-1225245D01*
X3070961Y-1225245D01*
X3068066Y-1204976D01*
G37*
G36*
X1002944Y-1243330D02*
G01*
X983132Y-1270101D01*
X983132Y-1281226D01*
X962964Y-1302664D01*
X978611Y-1296670D01*
X978611Y-1304645D01*
X968135Y-1361998D01*
X983234Y-1361998D01*
X998016Y-1281785D01*
X1008024Y-1275130D01*
X1041653Y-1275029D01*
X1051052Y-1292504D01*
X1051052Y-1320546D01*
X1037132Y-1353870D01*
X1022502Y-1370025D01*
X988212Y-1370025D01*
X983234Y-1361998D01*
X968135Y-1361998D01*
X952347Y-1448714D01*
X936142Y-1460550D01*
X953719Y-1460042D01*
X989939Y-1452524D01*
X974598Y-1451508D01*
X969365Y-1443024D01*
X979932Y-1379118D01*
X1012545Y-1379067D01*
X1041298Y-1361541D01*
X1066241Y-1318971D01*
X1066901Y-1274267D01*
X1048766Y-1260805D01*
X1021638Y-1265631D01*
X999845Y-1271930D01*
X1005535Y-1243330D01*
G37*
G36*
X1261567Y-1247495D02*
G01*
X1250188Y-1265936D01*
X1235557Y-1265936D01*
X1245565Y-1277975D01*
X1229614Y-1363268D01*
X1232814Y-1379067D01*
X1253744Y-1384350D01*
X1291031Y-1365351D01*
X1291031Y-1360678D01*
X1273505Y-1370025D01*
X1250797Y-1370025D01*
X1245616Y-1361643D01*
X1261059Y-1274419D01*
X1297127Y-1277061D01*
X1300835Y-1265936D01*
X1264462Y-1265936D01*
G37*
G36*
X1191768Y-1260297D02*
G01*
X1179118Y-1265174D01*
X1174140Y-1295349D01*
X1154938Y-1346403D01*
X1132992Y-1370025D01*
X1115415Y-1370025D01*
X1109980Y-1355852D01*
X1124000Y-1287830D01*
X1121206Y-1263751D01*
X1107033Y-1261110D01*
X1082243Y-1280566D01*
X1087069Y-1285341D01*
X1101242Y-1273606D01*
X1110132Y-1282446D01*
X1096314Y-1348028D01*
X1096314Y-1372768D01*
X1107186Y-1383639D01*
X1122781Y-1383639D01*
X1151026Y-1359916D01*
X1168146Y-1327048D01*
X1163116Y-1377848D01*
X1173530Y-1384300D01*
X1201978Y-1367688D01*
X1206296Y-1354226D01*
X1186688Y-1371650D01*
X1177798Y-1362811D01*
X1195882Y-1264412D01*
G37*
G36*
X2894330Y-1260500D02*
G01*
X2884932Y-1266342D01*
X2875076Y-1304442D01*
X2860294Y-1344320D01*
X2838602Y-1370025D01*
X2821025Y-1370025D01*
X2815488Y-1355598D01*
X2830728Y-1270203D01*
X2825292Y-1261414D01*
X2809443Y-1261414D01*
X2782824Y-1290726D01*
X2801670Y-1275029D01*
X2812237Y-1275029D01*
X2812237Y-1292504D01*
X2798267Y-1358747D01*
X2803347Y-1378966D01*
X2824988Y-1384401D01*
X2844546Y-1373936D01*
X2872079Y-1331569D01*
X2866085Y-1365910D01*
X2871724Y-1383639D01*
X2884576Y-1383639D01*
X2914142Y-1355852D01*
X2888945Y-1371295D01*
X2882849Y-1365199D01*
X2899410Y-1265580D01*
G37*
G36*
X1481328Y-1260805D02*
G01*
X1453997Y-1303934D01*
X1454404Y-1313484D01*
X1472031Y-1280109D01*
X1481937Y-1273962D01*
X1492046Y-1284071D01*
X1504442Y-1284071D01*
X1501546Y-1263700D01*
G37*
G36*
X689711Y-1260957D02*
G01*
X655828Y-1290726D01*
X643585Y-1319987D01*
X643585Y-1342847D01*
X660552Y-1342847D01*
X664718Y-1293063D01*
X685901Y-1270457D01*
X711301Y-1270457D01*
X727354Y-1294993D01*
X726948Y-1345133D01*
X710387Y-1370177D01*
X689508Y-1375410D01*
X671728Y-1369720D01*
X660552Y-1342847D01*
X643585Y-1342847D01*
X643585Y-1352397D01*
X657199Y-1378712D01*
X686663Y-1384198D01*
X709218Y-1375460D01*
X729488Y-1356207D01*
X744016Y-1328166D01*
X744626Y-1288135D01*
X726440Y-1263700D01*
G37*
G36*
X1975713Y-1260957D02*
G01*
X1949754Y-1284528D01*
X1969922Y-1272997D01*
X1978558Y-1281785D01*
X1960778Y-1380286D01*
X1965756Y-1385265D01*
X1976678Y-1374343D01*
X1990496Y-1322527D01*
X1990496Y-1263904D01*
G37*
G36*
X2031238Y-1261059D02*
G01*
X2015591Y-1272743D01*
X1992782Y-1303934D01*
X1992782Y-1312570D01*
X2020011Y-1275029D01*
X2043887Y-1275029D01*
X2037994Y-1336090D01*
X2032355Y-1378915D01*
X2046782Y-1384452D01*
X2074265Y-1364894D01*
X2074265Y-1355090D01*
X2055926Y-1371650D01*
X2048002Y-1363268D01*
X2062632Y-1279093D01*
X2052980Y-1263700D01*
G37*
G36*
X590600Y-1261414D02*
G01*
X560324Y-1281836D01*
X542137Y-1312875D01*
X541731Y-1361744D01*
X567131Y-1383639D01*
X591515Y-1383588D01*
X627735Y-1361287D01*
X616966Y-1360982D01*
X611327Y-1370025D01*
X570687Y-1370025D01*
X556310Y-1336090D01*
X566420Y-1286306D01*
X589737Y-1265936D01*
X602081Y-1265936D01*
X619556Y-1289964D01*
X629970Y-1283512D01*
X629970Y-1266901D01*
X615645Y-1261414D01*
G37*
G36*
X784453Y-1261414D02*
G01*
X759002Y-1284224D01*
X783945Y-1273556D01*
X789533Y-1279093D01*
X771296Y-1376832D01*
X775157Y-1383233D01*
X787552Y-1378458D01*
X793699Y-1345895D01*
X811479Y-1298397D01*
X829868Y-1275029D01*
X847598Y-1275029D01*
X853084Y-1289304D01*
X837234Y-1379575D01*
X842924Y-1385265D01*
X850849Y-1376832D01*
X866648Y-1322527D01*
X868070Y-1281785D01*
X861110Y-1261414D01*
X840282Y-1261414D01*
X820013Y-1275588D01*
X801827Y-1311198D01*
X799795Y-1311249D01*
X802894Y-1261414D01*
G37*
G36*
X902563Y-1261414D02*
G01*
X874471Y-1293418D01*
X874471Y-1298956D01*
X896670Y-1275029D01*
X914247Y-1275029D01*
X919378Y-1288288D01*
X904849Y-1369110D01*
X910386Y-1383639D01*
X923036Y-1383639D01*
X946912Y-1364843D01*
X946912Y-1355090D01*
X928573Y-1371650D01*
X920800Y-1363268D01*
X934669Y-1285443D01*
X928624Y-1261414D01*
G37*
G36*
X1358950Y-1261414D02*
G01*
X1323238Y-1293672D01*
X1316473Y-1311402D01*
X1331772Y-1311402D01*
X1331772Y-1299921D01*
X1349756Y-1270457D01*
X1376476Y-1270457D01*
X1381963Y-1279347D01*
X1372311Y-1297432D01*
X1356664Y-1305458D01*
X1331772Y-1311402D01*
X1316473Y-1311402D01*
X1307642Y-1334414D01*
X1315923Y-1366926D01*
X1340002Y-1384757D01*
X1370939Y-1378966D01*
X1386281Y-1367790D01*
X1342542Y-1370787D01*
X1330655Y-1356461D01*
X1326184Y-1317091D01*
X1365707Y-1306880D01*
X1395425Y-1288542D01*
X1400657Y-1274876D01*
X1389481Y-1261414D01*
G37*
G36*
X1448866Y-1261414D02*
G01*
X1433626Y-1261465D01*
X1406448Y-1284173D01*
X1431391Y-1273556D01*
X1437690Y-1279804D01*
X1426260Y-1354226D01*
X1421130Y-1384757D01*
X1433626Y-1380693D01*
X1449933Y-1331569D01*
X1453388Y-1277264D01*
G37*
G36*
X1642414Y-1261414D02*
G01*
X1623771Y-1262024D01*
X1604010Y-1269949D01*
X1594358Y-1287983D01*
X1594358Y-1304848D01*
X1629816Y-1339443D01*
X1633728Y-1354531D01*
X1626362Y-1374597D01*
X1606245Y-1374597D01*
X1585163Y-1354785D01*
X1573987Y-1366164D01*
X1595374Y-1383639D01*
X1616862Y-1383639D01*
X1643430Y-1358747D01*
X1649069Y-1339088D01*
X1607413Y-1292250D01*
X1610207Y-1272743D01*
X1631340Y-1269746D01*
X1648917Y-1285646D01*
X1659991Y-1274419D01*
G37*
G36*
X1747520Y-1261414D02*
G01*
X1723389Y-1261465D01*
X1693875Y-1279448D01*
X1676400Y-1308201D01*
X1670710Y-1341729D01*
X1684121Y-1373835D01*
X1702409Y-1383639D01*
X1723389Y-1383588D01*
X1759610Y-1361287D01*
X1748840Y-1360982D01*
X1743202Y-1370025D01*
X1708962Y-1370025D01*
X1691995Y-1351330D01*
X1692656Y-1304188D01*
X1707997Y-1274622D01*
X1731264Y-1264005D01*
X1750872Y-1288592D01*
X1761845Y-1288592D01*
X1761845Y-1266901D01*
G37*
G36*
X1799386Y-1261414D02*
G01*
X1775460Y-1283614D01*
X1775460Y-1289964D01*
X1792020Y-1275029D01*
X1802638Y-1275029D01*
X1802638Y-1295349D01*
X1787906Y-1369568D01*
X1793290Y-1383639D01*
X1807006Y-1383639D01*
X1832559Y-1358747D01*
X1817776Y-1370025D01*
X1807159Y-1370025D01*
X1807159Y-1348435D01*
X1821281Y-1273911D01*
X1816506Y-1261414D01*
G37*
G36*
X1897735Y-1261414D02*
G01*
X1862023Y-1293672D01*
X1855239Y-1311402D01*
X1870557Y-1311402D01*
X1870557Y-1299921D01*
X1888489Y-1270457D01*
X1915261Y-1270457D01*
X1920748Y-1279347D01*
X1911096Y-1297432D01*
X1895449Y-1305458D01*
X1870557Y-1311402D01*
X1855239Y-1311402D01*
X1846834Y-1333449D01*
X1852777Y-1365148D01*
X1876298Y-1383639D01*
X1895449Y-1383385D01*
X1931670Y-1366977D01*
X1880362Y-1371092D01*
X1865985Y-1343355D01*
X1865985Y-1316786D01*
X1904492Y-1306880D01*
X1934210Y-1288542D01*
X1939442Y-1274876D01*
X1928266Y-1261414D01*
G37*
G36*
X2165400Y-1261414D02*
G01*
X2144420Y-1262024D01*
X2126335Y-1269593D01*
X2104948Y-1289862D01*
X2092401Y-1319987D01*
X2092401Y-1352397D01*
X2106117Y-1378966D01*
X2129434Y-1384808D01*
X2163724Y-1374546D01*
X2176119Y-1359509D01*
X2156358Y-1370025D01*
X2124608Y-1370025D01*
X2110486Y-1349908D01*
X2110486Y-1306322D01*
X2128774Y-1270457D01*
X2136902Y-1270457D01*
X2150313Y-1265326D01*
X2172919Y-1289710D01*
X2182926Y-1283512D01*
X2182926Y-1270812D01*
G37*
G36*
X2987090Y-1261414D02*
G01*
X2968447Y-1262126D01*
X2954883Y-1267155D01*
X2939034Y-1280922D01*
X2939034Y-1307033D01*
X2975254Y-1344726D01*
X2975254Y-1363726D01*
X2964383Y-1374597D01*
X2947263Y-1374597D01*
X2931414Y-1355039D01*
X2920898Y-1361541D01*
X2920898Y-1374800D01*
X2945485Y-1384147D01*
X2968447Y-1378407D01*
X2988818Y-1359408D01*
X2988818Y-1331163D01*
X2952597Y-1295806D01*
X2952597Y-1270457D01*
X2978810Y-1270457D01*
X2983992Y-1284071D01*
X2997352Y-1284071D01*
X3003804Y-1273657D01*
G37*
G36*
X3040329Y-1261414D02*
G01*
X3013710Y-1290726D01*
X3032556Y-1275029D01*
X3043174Y-1275029D01*
X3043174Y-1295349D01*
X3028442Y-1369568D01*
X3033826Y-1383639D01*
X3047542Y-1383639D01*
X3073095Y-1358747D01*
X3058312Y-1370025D01*
X3047695Y-1370025D01*
X3047695Y-1349705D01*
X3062427Y-1275486D01*
X3057042Y-1261414D01*
G37*
G36*
X3112414Y-1261414D02*
G01*
X3088436Y-1283614D01*
X3088436Y-1289964D01*
X3104997Y-1275029D01*
X3115614Y-1275029D01*
X3115564Y-1290828D01*
X3102051Y-1367790D01*
X3102000Y-1383334D01*
X3114649Y-1378508D01*
X3128060Y-1327048D01*
X3135274Y-1309725D01*
X3125774Y-1315567D01*
X3134512Y-1274622D01*
X3129483Y-1261414D01*
G37*
G36*
X3166110Y-1261414D02*
G01*
X3133699Y-1299260D01*
X3134258Y-1308963D01*
X3145028Y-1291640D01*
X3160877Y-1275029D01*
X3179267Y-1275029D01*
X3184448Y-1288491D01*
X3170123Y-1372158D01*
X3182467Y-1384503D01*
X3199434Y-1375410D01*
X3217468Y-1354226D01*
X3198622Y-1370025D01*
X3188055Y-1370025D01*
X3188055Y-1354886D01*
X3202127Y-1279855D01*
X3192272Y-1261414D01*
G37*
G36*
X3279140Y-1261414D02*
G01*
X3273501Y-1270457D01*
X3296158Y-1270457D01*
X3302000Y-1279956D01*
X3287725Y-1301699D01*
X3254197Y-1310944D01*
X3249269Y-1306068D01*
X3269538Y-1268222D01*
X3238398Y-1301445D01*
X3228238Y-1339138D01*
X3234029Y-1365402D01*
X3257194Y-1383639D01*
X3276346Y-1383385D01*
X3312566Y-1366977D01*
X3261258Y-1371092D01*
X3246882Y-1343355D01*
X3246882Y-1316786D01*
X3285794Y-1307033D01*
X3316986Y-1286002D01*
X3320237Y-1269288D01*
X3307994Y-1261567D01*
G37*
G36*
X3368446Y-1261414D02*
G01*
X3341979Y-1287881D01*
X3341979Y-1301851D01*
X3382721Y-1347724D01*
X3382721Y-1363726D01*
X3371850Y-1374597D01*
X3351326Y-1374597D01*
X3341674Y-1356461D01*
X3328415Y-1356461D01*
X3328415Y-1374749D01*
X3350361Y-1384757D01*
X3374440Y-1378712D01*
X3396284Y-1356868D01*
X3396284Y-1332839D01*
X3355035Y-1292199D01*
X3357829Y-1272743D01*
X3381248Y-1270050D01*
X3392881Y-1284071D01*
X3405378Y-1284071D01*
X3405378Y-1272286D01*
X3394506Y-1261414D01*
G37*
G36*
X3480612Y-1261414D02*
G01*
X3461969Y-1262126D01*
X3448354Y-1267155D01*
X3432505Y-1280922D01*
X3432505Y-1307033D01*
X3468725Y-1342542D01*
X3468725Y-1360271D01*
X3463239Y-1374597D01*
X3440785Y-1374597D01*
X3424123Y-1354226D01*
X3414115Y-1364030D01*
X3419601Y-1378254D01*
X3442360Y-1383995D01*
X3461969Y-1378051D01*
X3482340Y-1359408D01*
X3482340Y-1331163D01*
X3446119Y-1295806D01*
X3446119Y-1270457D01*
X3473551Y-1270457D01*
X3478784Y-1284071D01*
X3490874Y-1284071D01*
X3497275Y-1273657D01*
G37*
G36*
X2248560Y-1261465D02*
G01*
X2230475Y-1271727D01*
X2209241Y-1290828D01*
X2200823Y-1306982D01*
X2213406Y-1306982D01*
X2224887Y-1279347D01*
X2239518Y-1270762D01*
X2260193Y-1270457D01*
X2265527Y-1284376D01*
X2249474Y-1302105D01*
X2217369Y-1310944D01*
X2213406Y-1306982D01*
X2200823Y-1306982D01*
X2195423Y-1317345D01*
X2194763Y-1362202D01*
X2219655Y-1383639D01*
X2239518Y-1383385D01*
X2275738Y-1366367D01*
X2242261Y-1371142D01*
X2219502Y-1365453D01*
X2208885Y-1329994D01*
X2213914Y-1316786D01*
X2263851Y-1301089D01*
X2283358Y-1280363D01*
X2280208Y-1263700D01*
G37*
G36*
X869950Y-1302156D02*
G01*
X869950Y-1306677D01*
X874471Y-1306677D01*
X874471Y-1302156D01*
G37*
G36*
X8209076Y-1324813D02*
G01*
X8209076Y-1451508D01*
X8295081Y-1451508D01*
X8295081Y-1324813D01*
G37*
G36*
X8349386Y-1324813D02*
G01*
X8349386Y-1451508D01*
X8430920Y-1451508D01*
X8430920Y-1324813D01*
G37*
G36*
X8485225Y-1324813D02*
G01*
X8485225Y-1451508D01*
X8571280Y-1451508D01*
X8571280Y-1324813D01*
G37*
G36*
X8625586Y-1324813D02*
G01*
X8625586Y-1451508D01*
X8707069Y-1451508D01*
X8707069Y-1324813D01*
G37*
G36*
X5652109Y-1528419D02*
G01*
X5641187Y-1541576D01*
X5647080Y-1560118D01*
X5668518Y-1560118D01*
X5674410Y-1541576D01*
X5663488Y-1528419D01*
G37*
G36*
X8485225Y-1532991D02*
G01*
X8485225Y-1659686D01*
X8571280Y-1659686D01*
X8571280Y-1532991D01*
G37*
G36*
X8625586Y-1532991D02*
G01*
X8625586Y-1659686D01*
X8707069Y-1659686D01*
X8707069Y-1532991D01*
G37*
G36*
X676351Y-1537512D02*
G01*
X665480Y-1550619D01*
X668578Y-1566926D01*
X690118Y-1566926D01*
X699668Y-1551838D01*
X687730Y-1537512D01*
G37*
G36*
X7149947Y-1646123D02*
G01*
X7140600Y-1663547D01*
X7146036Y-1677771D01*
X7171283Y-1677771D01*
X7176770Y-1663547D01*
X7167422Y-1646123D01*
G37*
G36*
X5217464Y-1682292D02*
G01*
X5206542Y-1695450D01*
X5209692Y-1711706D01*
X5236616Y-1711706D01*
X5239766Y-1695450D01*
X5228844Y-1682292D01*
G37*
G36*
X4072026Y-1741119D02*
G01*
X4061104Y-1754276D01*
X4064254Y-1770532D01*
X4086758Y-1770532D01*
X4089806Y-1748942D01*
X4077715Y-1741271D01*
G37*
G36*
X8209076Y-1741119D02*
G01*
X8209076Y-1867865D01*
X8295081Y-1867865D01*
X8295081Y-1741119D01*
G37*
G36*
X8349386Y-1741119D02*
G01*
X8349386Y-1867865D01*
X8430920Y-1867865D01*
X8430920Y-1741119D01*
G37*
G36*
X8625586Y-1741119D02*
G01*
X8625586Y-1867865D01*
X8707069Y-1867865D01*
X8707069Y-1741119D01*
G37*
G36*
X7783474Y-1817725D02*
G01*
X7783474Y-1949653D01*
X7867243Y-1947062D01*
X7867243Y-1820316D01*
G37*
G36*
X7642859Y-1818081D02*
G01*
X7645400Y-1947062D01*
X7729118Y-1949653D01*
X7729118Y-1818081D01*
G37*
G36*
X7923834Y-1818081D02*
G01*
X7923834Y-1949297D01*
X8005318Y-1949297D01*
X8005318Y-1818081D01*
G37*
G36*
X5534406Y-1876907D02*
G01*
X5522518Y-1891233D01*
X5532018Y-1906320D01*
X5552694Y-1906320D01*
X5562193Y-1891233D01*
X5550306Y-1876907D01*
G37*
G36*
X3592474Y-1890064D02*
G01*
X3581755Y-1902917D01*
X3587140Y-1916938D01*
X3601212Y-1922322D01*
X3614064Y-1911654D01*
X3611372Y-1892757D01*
G37*
G36*
X4652365Y-1894586D02*
G01*
X4645914Y-1901037D01*
X4645914Y-1916531D01*
X4659020Y-1927453D01*
X4678121Y-1921408D01*
X4675327Y-1897278D01*
G37*
G36*
X2953105Y-1904085D02*
G01*
X2939135Y-1923999D01*
X2951378Y-1942541D01*
X2968955Y-1945182D01*
X2985719Y-1926640D01*
X2975457Y-1904085D01*
G37*
G36*
X1934210Y-1926691D02*
G01*
X1924862Y-1944166D01*
X1939086Y-1958390D01*
X1946859Y-1958390D01*
X1961083Y-1944166D01*
X1961083Y-1937562D01*
X1950212Y-1926691D01*
G37*
G36*
X8209076Y-1949297D02*
G01*
X8209076Y-2076043D01*
X8295081Y-2076043D01*
X8295081Y-1949297D01*
G37*
G36*
X8349386Y-1949297D02*
G01*
X8349386Y-2076043D01*
X8430920Y-2076043D01*
X8430920Y-1949297D01*
G37*
G36*
X8485225Y-1949297D02*
G01*
X8485225Y-2076043D01*
X8571280Y-2076043D01*
X8571280Y-1949297D01*
G37*
G36*
X8625586Y-1949297D02*
G01*
X8625586Y-2076043D01*
X8707069Y-2076043D01*
X8707069Y-1949297D01*
G37*
G36*
X7642859Y-2026259D02*
G01*
X7645400Y-2155240D01*
X7726883Y-2155240D01*
X7729372Y-2026259D01*
G37*
G36*
X7923834Y-2026259D02*
G01*
X7923834Y-2157476D01*
X8005318Y-2157476D01*
X8005318Y-2026259D01*
G37*
G36*
X1276705Y-2062480D02*
G01*
X1263853Y-2067763D01*
X1263853Y-2083968D01*
X1277315Y-2095144D01*
X1291031Y-2089912D01*
X1291031Y-2067966D01*
G37*
G36*
X6421780Y-2085086D02*
G01*
X6410858Y-2098243D01*
X6414008Y-2114499D01*
X6441084Y-2114499D01*
X6444132Y-2092909D01*
X6431991Y-2085238D01*
G37*
G36*
X8209076Y-2157476D02*
G01*
X8209076Y-2284222D01*
X8295081Y-2284222D01*
X8295081Y-2157476D01*
G37*
G36*
X8349386Y-2157476D02*
G01*
X8349386Y-2284222D01*
X8430920Y-2284222D01*
X8430920Y-2157476D01*
G37*
G36*
X8485225Y-2157476D02*
G01*
X8485225Y-2284222D01*
X8571280Y-2284222D01*
X8571280Y-2157476D01*
G37*
G36*
X8625586Y-2157476D02*
G01*
X8625586Y-2284222D01*
X8707069Y-2284222D01*
X8707069Y-2157476D01*
G37*
G36*
X3890924Y-2184654D02*
G01*
X3879748Y-2198116D01*
X3885082Y-2211984D01*
X3898950Y-2217318D01*
X3912463Y-2206142D01*
X3912463Y-2198878D01*
X3898188Y-2184654D01*
G37*
G36*
X7643114Y-2234438D02*
G01*
X7643114Y-2361133D01*
X7729118Y-2361133D01*
X7729118Y-2234438D01*
G37*
G36*
X7783474Y-2234438D02*
G01*
X7783474Y-2361133D01*
X7869478Y-2361133D01*
X7869478Y-2234438D01*
G37*
G36*
X7923834Y-2234438D02*
G01*
X7923834Y-2361133D01*
X8005318Y-2361133D01*
X8005318Y-2234438D01*
G37*
G36*
X2682443Y-2261565D02*
G01*
X2676448Y-2267610D01*
X2676448Y-2288133D01*
X2695549Y-2294178D01*
X2709062Y-2280716D01*
X2702966Y-2261565D01*
G37*
G36*
X6266738Y-2266086D02*
G01*
X6266738Y-2392832D01*
X6352794Y-2392832D01*
X6352794Y-2266086D01*
G37*
G36*
X6407099Y-2266086D02*
G01*
X6407099Y-2392832D01*
X6488582Y-2392832D01*
X6488582Y-2266086D01*
G37*
G36*
X6547459Y-2266086D02*
G01*
X6547459Y-2392832D01*
X6628942Y-2392832D01*
X6628942Y-2266086D01*
G37*
G36*
X6683298Y-2266086D02*
G01*
X6683298Y-2392832D01*
X6769303Y-2392832D01*
X6769303Y-2266086D01*
G37*
G36*
X8625586Y-2361133D02*
G01*
X8625586Y-2492400D01*
X8707069Y-2492400D01*
X8707069Y-2361133D01*
G37*
G36*
X7643114Y-2442616D02*
G01*
X7643114Y-2569311D01*
X7729118Y-2569311D01*
X7729118Y-2442616D01*
G37*
G36*
X7923834Y-2442616D02*
G01*
X7923834Y-2569311D01*
X8005318Y-2569311D01*
X8005318Y-2442616D01*
G37*
G36*
X6266738Y-2474264D02*
G01*
X6266738Y-2601010D01*
X6352794Y-2601010D01*
X6352794Y-2474264D01*
G37*
G36*
X6407099Y-2474264D02*
G01*
X6407099Y-2601010D01*
X6488582Y-2601010D01*
X6488582Y-2474264D01*
G37*
G36*
X6547459Y-2474264D02*
G01*
X6547459Y-2601010D01*
X6628942Y-2601010D01*
X6628942Y-2474264D01*
G37*
G36*
X6683298Y-2474264D02*
G01*
X6683298Y-2601010D01*
X6769303Y-2601010D01*
X6769303Y-2474264D01*
G37*
G36*
X8209076Y-2568956D02*
G01*
X8209076Y-2700578D01*
X8295335Y-2700578D01*
X8292795Y-2571597D01*
G37*
G36*
X8491270Y-2569311D02*
G01*
X8485225Y-2575356D01*
X8485225Y-2700578D01*
X8571280Y-2700578D01*
X8571280Y-2569311D01*
G37*
G36*
X8625586Y-2569311D02*
G01*
X8625586Y-2700578D01*
X8707069Y-2700578D01*
X8707069Y-2569311D01*
G37*
G36*
X2301240Y-2632151D02*
G01*
X2291791Y-2649829D01*
X2304745Y-2660599D01*
X2321001Y-2657449D01*
X2321001Y-2634945D01*
G37*
G36*
X7643114Y-2650794D02*
G01*
X7643114Y-2777490D01*
X7729118Y-2777490D01*
X7729118Y-2650794D01*
G37*
G36*
X7923834Y-2650794D02*
G01*
X7923834Y-2777490D01*
X8005318Y-2777490D01*
X8005318Y-2650794D01*
G37*
G36*
X7027367Y-2659837D02*
G01*
X7027367Y-2791053D01*
X7108850Y-2791053D01*
X7108850Y-2659837D01*
G37*
G36*
X7162952Y-2659837D02*
G01*
X7165441Y-2788818D01*
X7246975Y-2788818D01*
X7249464Y-2659837D01*
G37*
G36*
X7303566Y-2659837D02*
G01*
X7303566Y-2791053D01*
X7385050Y-2791053D01*
X7385050Y-2659837D01*
G37*
G36*
X6273088Y-2677617D02*
G01*
X6266738Y-2683967D01*
X6266738Y-2809189D01*
X6352997Y-2809189D01*
X6350508Y-2680208D01*
G37*
G36*
X6689648Y-2677617D02*
G01*
X6683298Y-2683967D01*
X6683298Y-2809189D01*
X6769557Y-2809189D01*
X6767017Y-2680208D01*
G37*
G36*
X6407099Y-2677922D02*
G01*
X6407099Y-2809189D01*
X6488582Y-2809189D01*
X6488582Y-2677922D01*
G37*
G36*
X6547459Y-2677922D02*
G01*
X6547459Y-2809189D01*
X6628942Y-2809189D01*
X6628942Y-2677922D01*
G37*
G36*
X2726537Y-2718663D02*
G01*
X2716834Y-2736748D01*
X2726537Y-2754884D01*
X2748534Y-2754884D01*
X2758236Y-2736748D01*
X2748534Y-2718663D01*
G37*
G36*
X8209076Y-2777134D02*
G01*
X8209076Y-2909062D01*
X8292795Y-2906471D01*
X8292795Y-2779776D01*
G37*
G36*
X8491270Y-2777490D02*
G01*
X8485225Y-2783535D01*
X8485225Y-2908757D01*
X8571280Y-2908757D01*
X8571280Y-2777490D01*
G37*
G36*
X8625586Y-2777490D02*
G01*
X8625586Y-2908757D01*
X8707069Y-2908757D01*
X8707069Y-2777490D01*
G37*
G36*
X5650992Y-2858973D02*
G01*
X5650992Y-2985668D01*
X5732526Y-2985668D01*
X5732526Y-2858973D01*
G37*
G36*
X5786831Y-2858973D02*
G01*
X5786831Y-2985668D01*
X5872835Y-2985668D01*
X5872835Y-2858973D01*
G37*
G36*
X5927191Y-2858973D02*
G01*
X5927191Y-2985668D01*
X6008674Y-2985668D01*
X6008674Y-2858973D01*
G37*
G36*
X7643114Y-2858973D02*
G01*
X7643114Y-2985668D01*
X7729118Y-2985668D01*
X7729118Y-2858973D01*
G37*
G36*
X7783474Y-2858973D02*
G01*
X7783474Y-2985668D01*
X7869478Y-2985668D01*
X7869478Y-2858973D01*
G37*
G36*
X7923834Y-2858973D02*
G01*
X7923834Y-2985668D01*
X8005318Y-2985668D01*
X8005318Y-2858973D01*
G37*
G36*
X7027367Y-2868015D02*
G01*
X7027367Y-2994710D01*
X7108850Y-2994710D01*
X7108850Y-2868015D01*
G37*
G36*
X7303566Y-2868015D02*
G01*
X7303566Y-2994710D01*
X7385050Y-2994710D01*
X7385050Y-2868015D01*
G37*
G36*
X736396Y-2878328D02*
G01*
X679754Y-2885592D01*
X621588Y-2914192D01*
X585136Y-2950768D01*
X612190Y-2950768D01*
X652932Y-2921508D01*
X700176Y-2904540D01*
X702716Y-2904185D01*
X702225Y-2904845D01*
X783945Y-2904845D01*
X808888Y-2912008D01*
X854100Y-2934919D01*
X871016Y-2953613D01*
X827786Y-2974340D01*
X823874Y-2962859D01*
X793140Y-2920034D01*
X783945Y-2904845D01*
X702225Y-2904845D01*
X667308Y-2951734D01*
X657148Y-2971546D01*
X616407Y-2957677D01*
X612190Y-2950768D01*
X585136Y-2950768D01*
X570636Y-2965297D01*
X537159Y-3032709D01*
X537159Y-3076194D01*
X552602Y-3076194D01*
X558850Y-3042259D01*
X571500Y-3006039D01*
X593902Y-2972104D01*
X600557Y-2972054D01*
X612950Y-2977388D01*
X679043Y-2977388D01*
X690321Y-2956255D01*
X726135Y-2908757D01*
X734110Y-2908757D01*
X734110Y-2986836D01*
X752246Y-2986836D01*
X752602Y-2906471D01*
X786434Y-2943809D01*
X803910Y-2976270D01*
X799592Y-2980537D01*
X752246Y-2986836D01*
X734110Y-2986938D01*
X682498Y-2980842D01*
X679043Y-2977388D01*
X612950Y-2977388D01*
X648004Y-2992475D01*
X647845Y-2992882D01*
X836930Y-2992882D01*
X845058Y-2989935D01*
X881278Y-2972714D01*
X894842Y-2974340D01*
X924255Y-3033166D01*
X932230Y-3076498D01*
X854100Y-3073908D01*
X848461Y-3027781D01*
X836930Y-2992882D01*
X647845Y-2992882D01*
X642721Y-3006039D01*
X627938Y-3076194D01*
X652627Y-3076194D01*
X652729Y-3055823D01*
X665175Y-3009087D01*
X671677Y-2998622D01*
X682904Y-3002940D01*
X734110Y-3009341D01*
X734110Y-3076194D01*
X752246Y-3076194D01*
X752246Y-3009544D01*
X808837Y-3000502D01*
X814527Y-2999232D01*
X824636Y-3024124D01*
X833729Y-3072892D01*
X833729Y-3076194D01*
X537159Y-3076194D01*
X537159Y-3098444D01*
X651408Y-3098444D01*
X731875Y-3101086D01*
X734517Y-3161284D01*
X752246Y-3161385D01*
X752246Y-3104845D01*
X758291Y-3098800D01*
X833729Y-3098800D01*
X833729Y-3108350D01*
X819251Y-3172053D01*
X790702Y-3167278D01*
X752246Y-3161385D01*
X733857Y-3161385D01*
X695655Y-3167278D01*
X667359Y-3172002D01*
X657352Y-3143351D01*
X651408Y-3098444D01*
X537159Y-3098444D01*
X537159Y-3098800D01*
X628650Y-3098800D01*
X639013Y-3159912D01*
X643898Y-3177590D01*
X838606Y-3177590D01*
X851814Y-3133598D01*
X851814Y-3104845D01*
X857859Y-3098800D01*
X927303Y-3098800D01*
X932129Y-3103626D01*
X924306Y-3145485D01*
X902309Y-3191560D01*
X894181Y-3203143D01*
X840536Y-3178911D01*
X838606Y-3177590D01*
X643898Y-3177590D01*
X644652Y-3180283D01*
X637308Y-3183534D01*
X752246Y-3183534D01*
X799084Y-3189071D01*
X807770Y-3197758D01*
X784758Y-3236823D01*
X754631Y-3270758D01*
X783996Y-3270758D01*
X813358Y-3232048D01*
X830935Y-3198977D01*
X874471Y-3217418D01*
X874471Y-3224784D01*
X839165Y-3252724D01*
X799795Y-3270605D01*
X754631Y-3270758D01*
X752602Y-3273044D01*
X752246Y-3183534D01*
X637308Y-3183534D01*
X613198Y-3194202D01*
X674928Y-3194202D01*
X704697Y-3185617D01*
X734110Y-3184804D01*
X734110Y-3270758D01*
X727354Y-3270453D01*
X697585Y-3232302D01*
X674928Y-3194202D01*
X613198Y-3194202D01*
X592378Y-3203397D01*
X584352Y-3191560D01*
X563219Y-3150870D01*
X553008Y-3102914D01*
X553008Y-3098800D01*
X537159Y-3098800D01*
X537159Y-3146348D01*
X566826Y-3206953D01*
X583174Y-3224733D01*
X611886Y-3224733D01*
X611886Y-3218129D01*
X641299Y-3203498D01*
X656285Y-3202889D01*
X684225Y-3250438D01*
X699008Y-3270758D01*
X686562Y-3270707D01*
X641299Y-3249574D01*
X611886Y-3224733D01*
X583174Y-3224733D01*
X610920Y-3254959D01*
X659434Y-3284016D01*
X718261Y-3299053D01*
X795223Y-3294278D01*
X837031Y-3278327D01*
X890320Y-3241040D01*
X931367Y-3186836D01*
X951433Y-3125774D01*
X951433Y-3054350D01*
X934262Y-2999282D01*
X905814Y-2954883D01*
X862076Y-2914040D01*
X817880Y-2891891D01*
X786180Y-2882392D01*
G37*
G36*
X6689648Y-2885795D02*
G01*
X6683298Y-2892145D01*
X6683298Y-3017367D01*
X6769557Y-3017367D01*
X6767017Y-2888386D01*
G37*
G36*
X8209076Y-2985312D02*
G01*
X8209076Y-3117240D01*
X8292795Y-3114649D01*
X8292795Y-2987954D01*
G37*
G36*
X8485225Y-2985668D02*
G01*
X8485225Y-3116935D01*
X8571280Y-3116935D01*
X8571280Y-2985668D01*
G37*
G36*
X8625586Y-2985668D02*
G01*
X8625586Y-3116935D01*
X8707069Y-3116935D01*
X8707069Y-2985668D01*
G37*
G36*
X1495856Y-2994710D02*
G01*
X1458518Y-3143859D01*
X1458518Y-3148584D01*
X1470152Y-3148584D01*
X1505153Y-3006039D01*
X1509318Y-2994710D01*
G37*
G36*
X1562354Y-2994710D02*
G01*
X1558442Y-3006039D01*
X1526438Y-3134563D01*
X1526438Y-3149346D01*
X1537411Y-3145688D01*
X1571294Y-3006039D01*
X1571701Y-2994710D01*
G37*
G36*
X1078230Y-3021888D02*
G01*
X1078230Y-3125978D01*
X1086205Y-3125978D01*
X1090015Y-3066491D01*
X1103122Y-3058210D01*
X1123188Y-3058058D01*
X1132535Y-3075584D01*
X1132535Y-3126740D01*
X1143863Y-3122828D01*
X1143152Y-3063189D01*
X1131417Y-3049016D01*
X1098143Y-3049016D01*
X1087272Y-3059887D01*
X1087272Y-3021888D01*
G37*
G36*
X1748282Y-3021888D02*
G01*
X1748282Y-3058058D01*
X1739747Y-3058058D01*
X1734159Y-3049016D01*
X1706930Y-3049016D01*
X1690370Y-3057906D01*
X1681378Y-3083763D01*
X1682975Y-3092246D01*
X1693976Y-3092246D01*
X1693976Y-3076194D01*
X1712061Y-3058058D01*
X1728470Y-3058058D01*
X1744319Y-3069691D01*
X1745132Y-3098495D01*
X1733600Y-3112363D01*
X1708048Y-3112363D01*
X1693976Y-3092246D01*
X1682975Y-3092246D01*
X1686001Y-3108045D01*
X1708759Y-3125978D01*
X1728165Y-3125978D01*
X1748282Y-3111855D01*
X1748282Y-3125978D01*
X1757324Y-3125978D01*
X1757324Y-3021888D01*
G37*
G36*
X1996998Y-3021888D02*
G01*
X1999538Y-3123692D01*
X2008632Y-3121558D01*
X2011375Y-3069691D01*
X2021027Y-3058058D01*
X2041448Y-3058058D01*
X2051100Y-3069691D01*
X2053894Y-3122980D01*
X2065223Y-3126740D01*
X2065223Y-3064002D01*
X2048662Y-3049016D01*
X2021738Y-3049016D01*
X2010867Y-3059887D01*
X2010867Y-3021888D01*
G37*
G36*
X2137664Y-3021888D02*
G01*
X2137664Y-3126740D01*
X2148992Y-3122980D01*
X2151735Y-3069691D01*
X2161387Y-3058058D01*
X2181809Y-3058058D01*
X2191461Y-3069691D01*
X2194255Y-3121558D01*
X2203297Y-3121558D01*
X2206040Y-3070809D01*
X2191054Y-3047949D01*
X2151227Y-3052419D01*
X2151227Y-3021888D01*
G37*
G36*
X2373071Y-3021888D02*
G01*
X2373071Y-3058414D01*
X2355545Y-3049016D01*
X2328468Y-3049016D01*
X2309723Y-3072892D01*
X2309801Y-3094888D01*
X2323287Y-3094888D01*
X2323287Y-3074619D01*
X2338273Y-3058058D01*
X2356510Y-3058058D01*
X2373071Y-3073044D01*
X2373071Y-3094888D01*
X2363724Y-3112363D01*
X2332634Y-3112363D01*
X2323287Y-3094888D01*
X2309801Y-3094888D01*
X2323287Y-3121050D01*
X2355088Y-3126994D01*
X2368956Y-3115462D01*
X2379421Y-3125978D01*
X2386685Y-3125978D01*
X2386685Y-3021888D01*
G37*
G36*
X2667101Y-3021888D02*
G01*
X2669641Y-3123692D01*
X2678684Y-3123692D01*
X2681630Y-3093110D01*
X2716987Y-3127654D01*
X2722626Y-3122015D01*
X2692857Y-3085033D01*
X2728061Y-3049016D01*
X2709062Y-3049016D01*
X2680970Y-3081020D01*
X2680970Y-3021888D01*
G37*
G36*
X2739796Y-3021888D02*
G01*
X2739796Y-3126740D01*
X2751124Y-3122980D01*
X2755646Y-3093516D01*
X2784297Y-3125978D01*
X2794152Y-3125978D01*
X2794152Y-3118662D01*
X2762910Y-3088436D01*
X2794762Y-3051302D01*
X2780944Y-3048457D01*
X2753664Y-3078429D01*
X2753410Y-3021888D01*
G37*
G36*
X2902508Y-3021888D02*
G01*
X2905048Y-3122980D01*
X2916377Y-3126740D01*
X2916377Y-3021888D01*
G37*
G36*
X1168755Y-3025648D02*
G01*
X1168755Y-3048254D01*
X1157427Y-3053537D01*
X1168755Y-3058820D01*
X1168755Y-3117138D01*
X1192174Y-3126028D01*
X1200454Y-3120898D01*
X1200454Y-3112363D01*
X1182370Y-3112363D01*
X1182370Y-3058058D01*
X1200454Y-3058058D01*
X1200454Y-3049016D01*
X1182979Y-3049016D01*
X1180084Y-3029356D01*
G37*
G36*
X1218590Y-3025648D02*
G01*
X1218590Y-3048254D01*
X1207262Y-3053537D01*
X1218590Y-3058820D01*
X1218590Y-3117138D01*
X1241806Y-3125978D01*
X1250238Y-3125978D01*
X1250238Y-3112363D01*
X1232154Y-3112363D01*
X1232154Y-3058058D01*
X1250238Y-3058058D01*
X1250238Y-3049016D01*
X1232763Y-3049016D01*
X1229868Y-3029356D01*
G37*
G36*
X2093874Y-3026410D02*
G01*
X2087829Y-3032455D01*
X2087829Y-3048254D01*
X2076551Y-3053537D01*
X2087829Y-3058820D01*
X2087829Y-3107842D01*
X2105964Y-3125978D01*
X2119020Y-3125978D01*
X2124608Y-3116884D01*
X2101443Y-3108096D01*
X2101443Y-3058058D01*
X2124049Y-3058058D01*
X2124049Y-3049016D01*
X2101443Y-3049016D01*
X2101443Y-3026410D01*
G37*
G36*
X3004616Y-3045612D02*
G01*
X2973070Y-3055823D01*
X2961030Y-3081020D01*
X2966872Y-3107740D01*
X2990037Y-3125978D01*
X3010255Y-3125978D01*
X3034080Y-3107182D01*
X3034080Y-3098800D01*
X3021482Y-3098800D01*
X3016300Y-3112363D01*
X2984601Y-3112363D01*
X2975254Y-3094888D01*
X2975254Y-3073044D01*
X2991815Y-3058058D01*
X3010357Y-3058058D01*
X3021634Y-3071672D01*
X3035198Y-3071672D01*
X3022244Y-3052114D01*
G37*
G36*
X1388364Y-3046171D02*
G01*
X1370228Y-3049981D01*
X1358900Y-3059176D01*
X1358900Y-3081020D01*
X1399692Y-3098495D01*
X1399692Y-3112363D01*
X1374292Y-3112363D01*
X1364234Y-3102305D01*
X1352702Y-3106166D01*
X1372514Y-3125978D01*
X1398270Y-3125978D01*
X1413256Y-3109417D01*
X1413256Y-3095396D01*
X1401927Y-3086354D01*
X1379270Y-3079597D01*
X1368501Y-3071012D01*
X1373479Y-3058058D01*
X1395425Y-3058058D01*
X1400657Y-3071672D01*
X1413256Y-3071672D01*
X1413256Y-3064357D01*
X1401927Y-3050286D01*
G37*
G36*
X1954275Y-3046374D02*
G01*
X1934565Y-3049574D01*
X1924151Y-3062122D01*
X1927148Y-3082950D01*
X1965604Y-3096260D01*
X1965604Y-3112363D01*
X1940255Y-3112363D01*
X1930196Y-3102305D01*
X1918614Y-3106166D01*
X1938426Y-3125978D01*
X1964182Y-3125978D01*
X1979980Y-3108553D01*
X1976932Y-3093008D01*
X1963369Y-3085236D01*
X1938426Y-3076397D01*
X1938426Y-3058058D01*
X1961388Y-3058058D01*
X1966569Y-3071672D01*
X1979168Y-3071672D01*
X1979168Y-3064357D01*
X1967890Y-3050286D01*
G37*
G36*
X1433068Y-3048863D02*
G01*
X1426819Y-3055061D01*
X1426819Y-3062579D01*
X1445717Y-3062579D01*
X1442110Y-3051860D01*
G37*
G36*
X1263548Y-3049016D02*
G01*
X1264545Y-3092246D01*
X1277416Y-3092246D01*
X1277416Y-3076194D01*
X1295552Y-3058058D01*
X1311910Y-3058058D01*
X1328724Y-3070352D01*
X1328724Y-3098342D01*
X1317040Y-3112363D01*
X1291539Y-3112363D01*
X1277416Y-3092246D01*
X1264545Y-3092246D01*
X1266088Y-3159150D01*
X1277416Y-3162909D01*
X1277416Y-3112160D01*
X1299718Y-3126740D01*
X1327200Y-3120694D01*
X1340815Y-3101340D01*
X1340815Y-3068726D01*
X1319834Y-3049016D01*
X1294942Y-3049016D01*
X1277416Y-3058414D01*
X1277416Y-3049016D01*
G37*
G36*
X1609496Y-3049016D02*
G01*
X1589836Y-3069996D01*
X1589836Y-3101340D01*
X1589979Y-3101543D01*
X1603400Y-3101543D01*
X1603400Y-3074619D01*
X1618386Y-3058058D01*
X1635099Y-3058058D01*
X1653184Y-3076194D01*
X1653184Y-3095853D01*
X1638198Y-3112363D01*
X1614271Y-3112363D01*
X1603400Y-3101543D01*
X1589979Y-3101543D01*
X1603400Y-3120694D01*
X1630933Y-3126740D01*
X1653184Y-3112160D01*
X1653184Y-3126740D01*
X1664512Y-3122980D01*
X1667154Y-3049016D01*
X1653184Y-3049016D01*
X1653184Y-3058414D01*
X1635709Y-3049016D01*
G37*
G36*
X1794205Y-3049016D02*
G01*
X1775460Y-3072892D01*
X1775460Y-3093872D01*
X1775923Y-3094888D01*
X1789023Y-3094888D01*
X1789023Y-3074619D01*
X1804009Y-3058058D01*
X1822297Y-3058058D01*
X1838858Y-3073044D01*
X1838858Y-3094888D01*
X1829460Y-3112363D01*
X1798421Y-3112363D01*
X1789023Y-3094888D01*
X1775923Y-3094888D01*
X1785518Y-3115919D01*
X1807565Y-3125978D01*
X1823466Y-3125978D01*
X1834337Y-3115106D01*
X1845157Y-3125978D01*
X1852422Y-3125978D01*
X1852422Y-3049016D01*
X1838858Y-3049016D01*
X1838858Y-3059887D01*
X1827987Y-3049016D01*
G37*
G36*
X2241804Y-3049016D02*
G01*
X2223668Y-3067151D01*
X2223170Y-3077108D01*
X2231796Y-3077108D01*
X2250846Y-3058058D01*
X2265019Y-3058058D01*
X2282545Y-3067456D01*
X2282545Y-3101543D01*
X2271674Y-3112363D01*
X2248560Y-3112262D01*
X2237384Y-3105150D01*
X2231796Y-3077108D01*
X2223170Y-3077108D01*
X2222652Y-3087471D01*
X2224532Y-3105607D01*
X2238197Y-3120948D01*
X2263749Y-3126536D01*
X2290470Y-3112719D01*
X2296109Y-3098088D01*
X2296109Y-3068828D01*
X2277668Y-3049016D01*
G37*
G36*
X2409291Y-3049016D02*
G01*
X2409291Y-3103930D01*
X2418130Y-3120390D01*
X2441194Y-3126181D01*
X2460244Y-3115970D01*
X2467152Y-3127146D01*
X2477211Y-3120898D01*
X2477211Y-3049016D01*
X2463647Y-3049016D01*
X2463647Y-3094888D01*
X2454249Y-3112363D01*
X2427732Y-3112363D01*
X2418384Y-3094888D01*
X2418384Y-3049016D01*
G37*
G36*
X2490825Y-3049016D02*
G01*
X2490774Y-3055823D01*
X2519172Y-3126384D01*
X2532684Y-3123692D01*
X2558694Y-3055975D01*
X2558694Y-3049016D01*
X2546553Y-3049016D01*
X2535123Y-3087471D01*
X2523794Y-3109214D01*
X2502204Y-3049016D01*
G37*
G36*
X2590393Y-3049016D02*
G01*
X2572308Y-3067151D01*
X2572308Y-3092246D01*
X2581351Y-3092246D01*
X2581351Y-3076194D01*
X2599486Y-3058058D01*
X2615844Y-3058058D01*
X2632659Y-3070352D01*
X2632659Y-3098342D01*
X2620975Y-3112363D01*
X2595473Y-3112363D01*
X2581351Y-3092246D01*
X2572308Y-3092246D01*
X2572308Y-3107182D01*
X2596134Y-3125978D01*
X2615539Y-3125978D01*
X2635656Y-3111855D01*
X2635656Y-3125978D01*
X2644749Y-3125978D01*
X2644749Y-3049016D01*
X2635656Y-3049016D01*
X2635656Y-3058414D01*
X2618181Y-3049016D01*
G37*
G36*
X2825851Y-3049016D02*
G01*
X2807716Y-3067151D01*
X2807716Y-3098342D01*
X2819806Y-3098342D01*
X2819806Y-3070352D01*
X2836621Y-3058058D01*
X2852978Y-3058058D01*
X2871114Y-3076194D01*
X2871114Y-3092246D01*
X2856992Y-3112363D01*
X2831490Y-3112363D01*
X2819806Y-3098342D01*
X2807716Y-3098342D01*
X2807716Y-3101340D01*
X2821330Y-3120694D01*
X2848864Y-3126740D01*
X2871114Y-3112160D01*
X2871114Y-3126740D01*
X2882442Y-3122980D01*
X2885084Y-3049016D01*
X2871114Y-3049016D01*
X2871114Y-3058414D01*
X2853588Y-3049016D01*
G37*
G36*
X3066440Y-3049016D02*
G01*
X3047695Y-3072892D01*
X3047695Y-3098088D01*
X3049014Y-3101543D01*
X3061258Y-3101543D01*
X3061258Y-3072282D01*
X3075482Y-3058058D01*
X3092958Y-3058058D01*
X3111093Y-3076194D01*
X3111093Y-3092246D01*
X3096971Y-3112363D01*
X3072130Y-3112363D01*
X3061258Y-3101543D01*
X3049014Y-3101543D01*
X3053283Y-3112719D01*
X3080054Y-3126536D01*
X3105607Y-3120948D01*
X3122168Y-3102610D01*
X3122168Y-3067862D01*
X3105150Y-3049016D01*
G37*
G36*
X3137865Y-3049016D02*
G01*
X3140506Y-3122980D01*
X3151835Y-3126740D01*
X3151835Y-3072282D01*
X3166059Y-3058058D01*
X3182975Y-3058058D01*
X3197098Y-3078175D01*
X3197098Y-3125978D01*
X3206140Y-3125978D01*
X3206140Y-3072282D01*
X3220364Y-3058058D01*
X3237179Y-3058058D01*
X3251403Y-3072282D01*
X3251403Y-3125978D01*
X3260496Y-3125978D01*
X3260496Y-3063240D01*
X3246272Y-3049016D01*
X3216300Y-3049016D01*
X3204870Y-3062833D01*
X3189579Y-3049016D01*
X3162706Y-3049016D01*
X3151835Y-3059887D01*
X3151835Y-3049016D01*
G37*
G36*
X1911299Y-3049574D02*
G01*
X1875078Y-3050082D01*
X1875078Y-3126740D01*
X1886356Y-3122980D01*
X1890928Y-3064865D01*
X1911299Y-3055924D01*
G37*
G36*
X5650992Y-3067151D02*
G01*
X5650992Y-3193846D01*
X5732526Y-3193846D01*
X5732526Y-3067151D01*
G37*
G36*
X5927191Y-3067151D02*
G01*
X5927191Y-3193846D01*
X6008674Y-3193846D01*
X6008674Y-3067151D01*
G37*
G36*
X7643114Y-3067151D02*
G01*
X7643114Y-3193846D01*
X7729118Y-3193846D01*
X7729118Y-3067151D01*
G37*
G36*
X7923834Y-3067151D02*
G01*
X7923834Y-3193846D01*
X8005318Y-3193846D01*
X8005318Y-3067151D01*
G37*
G36*
X7027367Y-3076194D02*
G01*
X7027367Y-3202889D01*
X7108850Y-3202889D01*
X7108850Y-3076194D01*
G37*
G36*
X7163206Y-3076194D02*
G01*
X7163206Y-3202889D01*
X7249210Y-3202889D01*
X7249210Y-3076194D01*
G37*
G36*
X7303566Y-3076194D02*
G01*
X7303566Y-3202889D01*
X7385050Y-3202889D01*
X7385050Y-3076194D01*
G37*
G36*
X6683298Y-3093923D02*
G01*
X6683298Y-3225546D01*
X6769557Y-3225546D01*
X6767017Y-3096564D01*
G37*
G36*
X6272784Y-3094278D02*
G01*
X6266738Y-3100324D01*
X6266738Y-3225546D01*
X6352794Y-3225546D01*
X6352794Y-3094278D01*
G37*
G36*
X6407099Y-3094278D02*
G01*
X6407099Y-3225546D01*
X6488582Y-3225546D01*
X6488582Y-3094278D01*
G37*
G36*
X6547459Y-3094278D02*
G01*
X6547459Y-3225546D01*
X6628942Y-3225546D01*
X6628942Y-3094278D01*
G37*
G36*
X1431899Y-3107842D02*
G01*
X1425803Y-3117697D01*
X1435912Y-3127756D01*
X1445971Y-3117697D01*
X1439875Y-3107842D01*
G37*
G36*
X2934512Y-3107842D02*
G01*
X2934512Y-3120898D01*
X2944571Y-3127146D01*
X2951988Y-3115106D01*
X2947568Y-3107842D01*
G37*
G36*
X8209076Y-3193491D02*
G01*
X8209076Y-3325418D01*
X8292795Y-3322828D01*
X8292795Y-3196132D01*
G37*
G36*
X8349386Y-3193846D02*
G01*
X8349386Y-3325063D01*
X8430920Y-3325063D01*
X8430920Y-3193846D01*
G37*
G36*
X8484971Y-3193846D02*
G01*
X8487511Y-3322828D01*
X8571280Y-3325418D01*
X8571280Y-3193846D01*
G37*
G36*
X8625586Y-3193846D02*
G01*
X8625586Y-3325063D01*
X8707069Y-3325063D01*
X8707069Y-3193846D01*
G37*
G36*
X5650992Y-3275329D02*
G01*
X5650992Y-3402025D01*
X5732526Y-3402025D01*
X5732526Y-3275329D01*
G37*
G36*
X5927191Y-3275329D02*
G01*
X5927191Y-3402025D01*
X6008674Y-3402025D01*
X6008674Y-3275329D01*
G37*
G36*
X7643114Y-3275329D02*
G01*
X7643114Y-3402025D01*
X7729118Y-3402025D01*
X7729118Y-3275329D01*
G37*
G36*
X7923834Y-3275329D02*
G01*
X7923834Y-3402025D01*
X8005318Y-3402025D01*
X8005318Y-3275329D01*
G37*
G36*
X7303566Y-3284372D02*
G01*
X7303566Y-3411067D01*
X7385050Y-3411067D01*
X7385050Y-3284372D01*
G37*
G36*
X6407099Y-3302457D02*
G01*
X6407099Y-3433724D01*
X6488582Y-3433724D01*
X6488582Y-3302457D01*
G37*
G36*
X6547459Y-3302457D02*
G01*
X6547459Y-3433724D01*
X6628942Y-3433724D01*
X6628942Y-3302457D01*
G37*
G36*
X6683298Y-3302457D02*
G01*
X6683298Y-3433724D01*
X6769303Y-3433724D01*
X6769303Y-3302457D01*
G37*
G36*
X5302402Y-3401669D02*
G01*
X5302402Y-3533597D01*
X5386171Y-3531006D01*
X5386171Y-3404311D01*
G37*
G36*
X5161788Y-3402025D02*
G01*
X5164277Y-3531006D01*
X5248046Y-3533597D01*
X5248046Y-3402025D01*
G37*
G36*
X8484971Y-3402025D02*
G01*
X8487511Y-3531006D01*
X8571280Y-3533597D01*
X8571280Y-3402025D01*
G37*
G36*
X8625586Y-3402025D02*
G01*
X8625586Y-3533241D01*
X8707069Y-3533241D01*
X8707069Y-3402025D01*
G37*
G36*
X773938Y-3474415D02*
G01*
X709218Y-3475228D01*
X668477Y-3486607D01*
X619150Y-3511702D01*
X568248Y-3562654D01*
X537260Y-3625697D01*
X534265Y-3713479D01*
X548487Y-3713479D01*
X548487Y-3657092D01*
X562864Y-3607917D01*
X585774Y-3568344D01*
X617270Y-3533444D01*
X649376Y-3513632D01*
X700176Y-3492246D01*
X795223Y-3495344D01*
X856437Y-3523691D01*
X901953Y-3570376D01*
X924356Y-3614572D01*
X937869Y-3666388D01*
X937768Y-3707485D01*
X925626Y-3752748D01*
X901953Y-3799332D01*
X858570Y-3843883D01*
X795477Y-3874922D01*
X691134Y-3874922D01*
X631139Y-3846525D01*
X594410Y-3813352D01*
X565658Y-3768598D01*
X548487Y-3713479D01*
X534265Y-3713479D01*
X533958Y-3722624D01*
X553770Y-3782161D01*
X593648Y-3836314D01*
X632256Y-3864762D01*
X680059Y-3887012D01*
X743915Y-3896512D01*
X808837Y-3886047D01*
X866140Y-3858158D01*
X914450Y-3809898D01*
X949198Y-3739642D01*
X949198Y-3630574D01*
X923899Y-3576523D01*
X888593Y-3529837D01*
X832815Y-3492601D01*
G37*
G36*
X5650992Y-3483457D02*
G01*
X5650992Y-3610203D01*
X5732526Y-3610203D01*
X5732526Y-3483457D01*
G37*
G36*
X5786831Y-3483457D02*
G01*
X5786831Y-3610203D01*
X5872835Y-3610203D01*
X5872835Y-3483457D01*
G37*
G36*
X7643114Y-3483457D02*
G01*
X7643114Y-3610203D01*
X7729118Y-3610203D01*
X7729118Y-3483457D01*
G37*
G36*
X7783474Y-3483457D02*
G01*
X7783474Y-3610203D01*
X7869478Y-3610203D01*
X7869478Y-3483457D01*
G37*
G36*
X7163206Y-3492550D02*
G01*
X7163206Y-3619246D01*
X7249210Y-3619246D01*
X7249210Y-3492550D01*
G37*
G36*
X7303566Y-3492550D02*
G01*
X7303566Y-3619246D01*
X7385050Y-3619246D01*
X7385050Y-3492550D01*
G37*
G36*
X6407099Y-3510635D02*
G01*
X6407099Y-3641851D01*
X6488582Y-3641851D01*
X6488582Y-3510635D01*
G37*
G36*
X6547459Y-3510635D02*
G01*
X6547459Y-3641851D01*
X6628942Y-3641851D01*
X6628942Y-3510635D01*
G37*
G36*
X6683298Y-3510635D02*
G01*
X6683298Y-3642207D01*
X6767017Y-3639616D01*
X6769557Y-3510635D01*
G37*
G36*
X670458Y-3546856D02*
G01*
X665073Y-3560826D01*
X670001Y-3591102D01*
X655726Y-3611524D01*
X652018Y-3675837D01*
X669493Y-3707485D01*
X718261Y-3733037D01*
X718261Y-3756304D01*
X703834Y-3765397D01*
X678230Y-3758996D01*
X645617Y-3723335D01*
X629259Y-3723335D01*
X632256Y-3730142D01*
X663956Y-3777538D01*
X702106Y-3792321D01*
X716534Y-3786784D01*
X726033Y-3814064D01*
X742594Y-3822903D01*
X770737Y-3822903D01*
X794207Y-3799433D01*
X789178Y-3732733D01*
X837996Y-3710381D01*
X856335Y-3680358D01*
X856030Y-3616960D01*
X843127Y-3594354D01*
X842771Y-3546856D01*
X826922Y-3546856D01*
X800608Y-3569462D01*
X795223Y-3569258D01*
X757428Y-3560521D01*
X710488Y-3569411D01*
X683615Y-3546856D01*
G37*
G36*
X1495602Y-3587546D02*
G01*
X1462430Y-3725621D01*
X1457909Y-3741420D01*
X1471320Y-3741420D01*
X1504086Y-3603396D01*
X1508963Y-3587546D01*
G37*
G36*
X1563217Y-3587546D02*
G01*
X1559306Y-3594354D01*
X1525574Y-3737559D01*
X1531112Y-3743096D01*
X1538782Y-3734663D01*
X1571701Y-3601364D01*
X1571701Y-3587546D01*
G37*
G36*
X2431948Y-3587546D02*
G01*
X2420620Y-3587699D01*
X2383485Y-3741420D01*
X2395372Y-3741420D01*
X2404313Y-3707485D01*
X2431948Y-3597148D01*
G37*
G36*
X5161788Y-3610203D02*
G01*
X5164277Y-3739184D01*
X5248046Y-3741775D01*
X5248046Y-3610203D01*
G37*
G36*
X5302402Y-3610203D02*
G01*
X5302402Y-3741775D01*
X5386171Y-3739184D01*
X5388660Y-3610203D01*
G37*
G36*
X8209076Y-3610203D02*
G01*
X8209076Y-3741775D01*
X8292795Y-3739184D01*
X8295335Y-3610203D01*
G37*
G36*
X8349386Y-3610203D02*
G01*
X8349386Y-3741420D01*
X8430920Y-3741420D01*
X8430920Y-3610203D01*
G37*
G36*
X8484971Y-3610203D02*
G01*
X8487511Y-3739184D01*
X8568994Y-3739184D01*
X8571484Y-3610203D01*
G37*
G36*
X8625586Y-3610203D02*
G01*
X8625586Y-3741420D01*
X8707069Y-3741420D01*
X8707069Y-3610203D01*
G37*
G36*
X1078230Y-3614724D02*
G01*
X1078230Y-3718814D01*
X1087272Y-3718814D01*
X1087272Y-3671062D01*
X1101344Y-3650945D01*
X1117549Y-3650945D01*
X1132535Y-3667506D01*
X1132535Y-3718814D01*
X1147165Y-3718814D01*
X1143457Y-3660495D01*
X1126591Y-3641851D01*
X1104798Y-3641851D01*
X1087272Y-3651250D01*
X1087272Y-3614724D01*
G37*
G36*
X1684883Y-3614724D02*
G01*
X1684883Y-3627780D01*
X1692910Y-3632708D01*
X1702917Y-3620668D01*
X1696974Y-3614724D01*
G37*
G36*
X1770938Y-3614724D02*
G01*
X1770938Y-3718814D01*
X1784502Y-3718814D01*
X1784502Y-3665169D01*
X1798726Y-3650945D01*
X1807718Y-3650945D01*
X1825243Y-3660292D01*
X1825243Y-3718814D01*
X1838858Y-3718814D01*
X1838858Y-3659987D01*
X1820722Y-3641851D01*
X1795373Y-3641851D01*
X1784502Y-3652723D01*
X1784502Y-3614724D01*
G37*
G36*
X1947519Y-3614724D02*
G01*
X1947519Y-3691636D01*
X1961083Y-3691636D01*
X1961083Y-3669029D01*
X1979168Y-3650945D01*
X1990750Y-3650945D01*
X2010867Y-3665016D01*
X2010867Y-3695649D01*
X1990750Y-3709771D01*
X1979168Y-3709771D01*
X1961083Y-3691636D01*
X1947519Y-3691636D01*
X1947519Y-3718814D01*
X1961083Y-3718814D01*
X1961083Y-3704590D01*
X1975307Y-3718814D01*
X2005685Y-3718814D01*
X2024481Y-3694937D01*
X2024481Y-3664102D01*
X2002231Y-3641851D01*
X1981200Y-3641851D01*
X1961083Y-3655974D01*
X1961083Y-3614724D01*
G37*
G36*
X2762453Y-3614724D02*
G01*
X2762453Y-3655974D01*
X2742336Y-3641851D01*
X2721305Y-3641851D01*
X2699054Y-3664102D01*
X2699054Y-3694937D01*
X2699614Y-3695649D01*
X2712669Y-3695649D01*
X2712669Y-3665016D01*
X2732786Y-3650945D01*
X2744317Y-3650945D01*
X2762453Y-3669029D01*
X2762453Y-3691636D01*
X2744317Y-3709771D01*
X2732786Y-3709771D01*
X2712669Y-3695649D01*
X2699614Y-3695649D01*
X2717850Y-3718814D01*
X2744927Y-3718814D01*
X2762453Y-3709466D01*
X2762453Y-3718814D01*
X2776016Y-3718814D01*
X2776016Y-3614724D01*
G37*
G36*
X3015996Y-3614724D02*
G01*
X3015996Y-3718814D01*
X3025038Y-3718814D01*
X3025038Y-3671062D01*
X3039160Y-3650945D01*
X3055315Y-3650945D01*
X3070301Y-3667506D01*
X3070301Y-3718814D01*
X3084982Y-3718814D01*
X3081223Y-3660495D01*
X3064408Y-3641851D01*
X3042564Y-3641851D01*
X3025038Y-3651250D01*
X3025038Y-3614724D01*
G37*
G36*
X3116122Y-3619246D02*
G01*
X3102000Y-3639362D01*
X3102000Y-3668268D01*
X3110534Y-3668268D01*
X3116630Y-3639616D01*
X3125774Y-3628288D01*
X3142132Y-3628288D01*
X3156356Y-3642512D01*
X3156356Y-3694379D01*
X3145485Y-3705250D01*
X3120491Y-3705250D01*
X3110534Y-3668268D01*
X3102000Y-3668268D01*
X3102000Y-3696614D01*
X3124250Y-3718814D01*
X3147314Y-3718814D01*
X3165195Y-3700932D01*
X3171037Y-3677564D01*
X3166465Y-3636975D01*
X3150412Y-3619246D01*
G37*
G36*
X3206800Y-3619246D02*
G01*
X3192576Y-3633470D01*
X3186938Y-3655923D01*
X3190635Y-3694379D01*
X3201619Y-3694379D01*
X3201619Y-3645814D01*
X3211017Y-3628288D01*
X3231489Y-3628288D01*
X3242360Y-3639159D01*
X3242360Y-3694379D01*
X3231489Y-3705250D01*
X3212490Y-3705250D01*
X3201619Y-3694379D01*
X3190635Y-3694379D01*
X3191408Y-3702405D01*
X3211677Y-3718814D01*
X3232302Y-3718814D01*
X3252571Y-3702405D01*
X3257042Y-3655923D01*
X3251403Y-3633470D01*
X3237179Y-3619246D01*
G37*
G36*
X3289452Y-3619246D02*
G01*
X3278581Y-3630117D01*
X3278581Y-3646982D01*
X3287014Y-3646982D01*
X3297275Y-3627780D01*
X3326129Y-3630574D01*
X3326129Y-3657701D01*
X3298190Y-3660444D01*
X3287014Y-3646982D01*
X3278581Y-3646982D01*
X3278581Y-3660241D01*
X3291484Y-3665220D01*
X3275279Y-3681374D01*
X3286861Y-3681374D01*
X3298951Y-3673703D01*
X3322777Y-3673551D01*
X3333648Y-3686708D01*
X3330549Y-3702761D01*
X3305251Y-3711651D01*
X3289909Y-3702050D01*
X3286861Y-3681374D01*
X3275279Y-3681374D01*
X3274060Y-3682593D01*
X3274060Y-3703828D01*
X3290620Y-3718814D01*
X3326637Y-3718814D01*
X3341065Y-3707485D01*
X3346653Y-3688537D01*
X3328517Y-3665524D01*
X3341979Y-3654348D01*
X3341979Y-3634232D01*
X3325418Y-3619246D01*
G37*
G36*
X1168755Y-3623767D02*
G01*
X1168755Y-3641851D01*
X1159713Y-3641851D01*
X1159713Y-3655466D01*
X1168755Y-3655466D01*
X1168755Y-3707942D01*
X1179626Y-3718814D01*
X1200454Y-3718814D01*
X1200454Y-3708908D01*
X1182370Y-3704183D01*
X1182370Y-3656482D01*
X1200454Y-3651758D01*
X1200454Y-3641851D01*
X1182370Y-3641851D01*
X1182370Y-3623767D01*
G37*
G36*
X1218590Y-3623767D02*
G01*
X1218590Y-3641851D01*
X1209497Y-3641851D01*
X1209497Y-3655466D01*
X1218590Y-3655466D01*
X1218590Y-3707942D01*
X1229410Y-3718814D01*
X1250238Y-3718814D01*
X1250238Y-3705250D01*
X1232154Y-3705250D01*
X1232154Y-3655466D01*
X1250238Y-3655466D01*
X1250238Y-3641851D01*
X1232154Y-3641851D01*
X1232154Y-3623767D01*
G37*
G36*
X1725625Y-3623767D02*
G01*
X1725625Y-3640886D01*
X1709826Y-3647033D01*
X1725168Y-3658362D01*
X1727911Y-3716528D01*
X1757324Y-3719372D01*
X1757324Y-3709517D01*
X1734718Y-3700932D01*
X1734718Y-3656076D01*
X1754378Y-3653180D01*
X1758086Y-3641851D01*
X1734718Y-3641851D01*
X1734718Y-3623767D01*
G37*
G36*
X2454554Y-3623767D02*
G01*
X2454554Y-3718814D01*
X2463647Y-3718814D01*
X2463647Y-3623767D01*
G37*
G36*
X2490825Y-3623767D02*
G01*
X2490825Y-3640886D01*
X2474976Y-3647033D01*
X2490825Y-3658717D01*
X2490825Y-3707942D01*
X2501646Y-3718814D01*
X2522474Y-3718814D01*
X2522474Y-3709466D01*
X2506624Y-3703624D01*
X2500020Y-3693922D01*
X2499868Y-3656076D01*
X2519527Y-3653180D01*
X2523236Y-3641851D01*
X2499868Y-3641851D01*
X2499868Y-3623767D01*
G37*
G36*
X2637586Y-3623767D02*
G01*
X2614677Y-3687114D01*
X2630170Y-3687114D01*
X2635758Y-3664915D01*
X2645003Y-3640632D01*
X2647950Y-3644137D01*
X2662275Y-3687114D01*
X2614677Y-3687114D01*
X2603042Y-3718814D01*
X2617419Y-3718814D01*
X2623058Y-3696208D01*
X2667203Y-3696208D01*
X2672892Y-3718814D01*
X2685491Y-3718814D01*
X2685491Y-3712006D01*
X2653030Y-3623767D01*
G37*
G36*
X1915820Y-3641140D02*
G01*
X1915820Y-3689654D01*
X1901698Y-3709771D01*
X1884629Y-3709771D01*
X1870557Y-3689654D01*
X1870557Y-3641851D01*
X1861464Y-3641851D01*
X1861464Y-3703828D01*
X1878025Y-3718814D01*
X1898294Y-3718814D01*
X1915820Y-3709466D01*
X1915820Y-3718814D01*
X1929739Y-3718814D01*
X1927148Y-3644849D01*
G37*
G36*
X2857550Y-3641140D02*
G01*
X2857550Y-3655974D01*
X2837383Y-3641851D01*
X2817977Y-3641851D01*
X2794152Y-3660648D01*
X2794152Y-3689908D01*
X2803194Y-3689908D01*
X2803194Y-3673144D01*
X2825445Y-3650945D01*
X2835300Y-3650945D01*
X2858414Y-3674008D01*
X2852369Y-3698443D01*
X2844241Y-3706723D01*
X2815488Y-3706723D01*
X2803194Y-3689908D01*
X2794152Y-3689908D01*
X2794152Y-3699001D01*
X2812592Y-3718814D01*
X2842158Y-3718814D01*
X2854147Y-3707485D01*
X2858262Y-3718814D01*
X2871470Y-3718814D01*
X2868828Y-3644849D01*
G37*
G36*
X1269898Y-3641851D02*
G01*
X1263853Y-3647897D01*
X1263853Y-3686403D01*
X1277416Y-3686403D01*
X1277416Y-3673144D01*
X1299667Y-3650945D01*
X1305204Y-3650945D01*
X1323136Y-3660546D01*
X1331569Y-3682644D01*
X1321612Y-3704488D01*
X1303629Y-3709162D01*
X1283208Y-3701389D01*
X1277416Y-3686403D01*
X1263853Y-3686403D01*
X1263853Y-3755034D01*
X1277416Y-3755034D01*
X1277416Y-3703828D01*
X1293977Y-3718814D01*
X1321104Y-3718814D01*
X1340815Y-3697884D01*
X1340815Y-3660648D01*
X1316939Y-3641851D01*
X1297533Y-3641851D01*
X1277416Y-3655974D01*
X1277416Y-3641851D01*
G37*
G36*
X1396695Y-3641851D02*
G01*
X1374749Y-3642156D01*
X1358900Y-3651402D01*
X1358900Y-3672433D01*
X1370279Y-3681882D01*
X1395882Y-3688283D01*
X1400860Y-3701338D01*
X1390446Y-3711752D01*
X1358849Y-3694734D01*
X1353616Y-3699967D01*
X1372514Y-3718814D01*
X1395730Y-3718814D01*
X1413256Y-3709466D01*
X1413256Y-3686606D01*
X1372870Y-3668776D01*
X1368094Y-3661003D01*
X1381150Y-3650183D01*
X1399692Y-3656076D01*
X1399692Y-3664508D01*
X1413256Y-3664508D01*
X1413256Y-3656837D01*
G37*
G36*
X1431899Y-3641851D02*
G01*
X1425803Y-3651707D01*
X1435912Y-3661765D01*
X1445971Y-3651707D01*
X1439875Y-3641851D01*
G37*
G36*
X1612036Y-3641851D02*
G01*
X1589836Y-3664102D01*
X1589836Y-3694937D01*
X1590393Y-3695649D01*
X1603400Y-3695649D01*
X1603400Y-3665016D01*
X1623517Y-3650945D01*
X1635099Y-3650945D01*
X1653184Y-3669029D01*
X1653184Y-3691636D01*
X1635099Y-3709771D01*
X1623517Y-3709771D01*
X1603400Y-3695649D01*
X1590393Y-3695649D01*
X1608582Y-3718814D01*
X1635709Y-3718814D01*
X1653184Y-3709466D01*
X1653184Y-3725824D01*
X1639112Y-3745941D01*
X1622755Y-3745941D01*
X1599692Y-3727856D01*
X1594358Y-3727856D01*
X1594358Y-3740912D01*
X1614474Y-3755034D01*
X1643176Y-3755034D01*
X1664512Y-3737711D01*
X1667611Y-3641851D01*
X1653184Y-3641851D01*
X1653184Y-3655974D01*
X1633067Y-3641851D01*
G37*
G36*
X1690928Y-3641851D02*
G01*
X1684883Y-3647897D01*
X1684883Y-3718814D01*
X1698498Y-3718814D01*
X1698498Y-3641851D01*
G37*
G36*
X2109876Y-3641851D02*
G01*
X2094636Y-3642512D01*
X2074570Y-3652164D01*
X2065070Y-3680866D01*
X2075230Y-3709974D01*
X2091791Y-3718814D01*
X2119528Y-3718814D01*
X2137664Y-3700729D01*
X2137664Y-3691636D01*
X2132736Y-3691636D01*
X2107082Y-3710635D01*
X2090420Y-3707434D01*
X2077415Y-3684219D01*
X2083562Y-3659682D01*
X2106168Y-3649370D01*
X2133854Y-3669842D01*
X2137867Y-3665778D01*
X2131872Y-3650234D01*
G37*
G36*
X2173478Y-3641851D02*
G01*
X2151227Y-3664102D01*
X2151227Y-3694785D01*
X2164842Y-3694785D01*
X2164842Y-3665016D01*
X2184958Y-3650945D01*
X2196490Y-3650945D01*
X2214626Y-3669029D01*
X2214626Y-3691636D01*
X2196490Y-3709771D01*
X2181402Y-3709771D01*
X2164842Y-3694785D01*
X2151227Y-3694785D01*
X2151227Y-3696614D01*
X2173478Y-3718814D01*
X2204770Y-3718814D01*
X2228189Y-3690975D01*
X2228189Y-3673957D01*
X2218131Y-3651910D01*
X2196084Y-3641851D01*
G37*
G36*
X2246325Y-3641851D02*
G01*
X2246325Y-3718814D01*
X2255367Y-3718814D01*
X2255367Y-3671062D01*
X2269490Y-3650945D01*
X2286558Y-3650945D01*
X2300630Y-3671062D01*
X2300630Y-3718814D01*
X2309723Y-3718814D01*
X2309723Y-3671062D01*
X2323795Y-3650945D01*
X2340864Y-3650945D01*
X2354986Y-3671062D01*
X2354986Y-3718814D01*
X2369820Y-3718814D01*
X2365044Y-3659530D01*
X2349042Y-3641851D01*
X2325319Y-3641851D01*
X2306116Y-3655263D01*
X2294991Y-3641851D01*
X2272893Y-3641851D01*
X2255367Y-3651250D01*
X2255367Y-3641851D01*
G37*
G36*
X2573832Y-3641851D02*
G01*
X2551938Y-3642156D01*
X2536088Y-3651402D01*
X2536088Y-3672433D01*
X2547467Y-3681882D01*
X2571902Y-3688029D01*
X2581452Y-3699510D01*
X2567076Y-3711448D01*
X2536037Y-3694734D01*
X2530805Y-3699967D01*
X2549652Y-3718814D01*
X2572867Y-3718814D01*
X2590393Y-3709466D01*
X2590393Y-3686606D01*
X2549652Y-3668623D01*
X2549652Y-3656431D01*
X2563215Y-3651199D01*
X2576830Y-3656431D01*
X2576830Y-3664508D01*
X2590393Y-3664508D01*
X2590393Y-3656837D01*
G37*
G36*
X2889199Y-3641851D02*
G01*
X2889199Y-3718814D01*
X2902356Y-3718814D01*
X2905048Y-3662222D01*
X2925419Y-3653332D01*
X2925419Y-3641851D01*
X2920339Y-3641851D01*
X2902813Y-3651250D01*
X2902813Y-3641851D01*
G37*
G36*
X2953258Y-3641851D02*
G01*
X2939034Y-3656076D01*
X2939034Y-3672433D01*
X2950362Y-3681425D01*
X2984296Y-3692347D01*
X2984296Y-3704640D01*
X2967482Y-3709974D01*
X2952597Y-3704285D01*
X2952597Y-3696208D01*
X2939034Y-3696208D01*
X2939034Y-3709466D01*
X2956560Y-3718814D01*
X2983788Y-3718814D01*
X2997758Y-3698849D01*
X2985820Y-3680917D01*
X2954883Y-3670503D01*
X2952140Y-3656584D01*
X2967482Y-3650742D01*
X2988513Y-3664508D01*
X2993339Y-3664508D01*
X2993339Y-3651250D01*
X2975813Y-3641851D01*
G37*
G36*
X5650992Y-3691636D02*
G01*
X5650992Y-3818382D01*
X5732526Y-3818382D01*
X5732526Y-3691636D01*
G37*
G36*
X5786831Y-3691636D02*
G01*
X5786831Y-3818382D01*
X5872835Y-3818382D01*
X5872835Y-3691636D01*
G37*
G36*
X5927191Y-3691636D02*
G01*
X5927191Y-3818382D01*
X6008674Y-3818382D01*
X6008674Y-3691636D01*
G37*
G36*
X7643114Y-3691636D02*
G01*
X7643114Y-3818382D01*
X7729118Y-3818382D01*
X7729118Y-3691636D01*
G37*
G36*
X7783474Y-3691636D02*
G01*
X7783474Y-3818382D01*
X7869478Y-3818382D01*
X7869478Y-3691636D01*
G37*
G36*
X7923834Y-3691636D02*
G01*
X7923834Y-3818382D01*
X8005318Y-3818382D01*
X8005318Y-3691636D01*
G37*
G36*
X2043379Y-3700272D02*
G01*
X2037029Y-3710533D01*
X2047087Y-3720642D01*
X2056536Y-3711194D01*
G37*
G36*
X1431899Y-3700729D02*
G01*
X1425803Y-3710533D01*
X1435912Y-3720642D01*
X1445971Y-3710533D01*
X1439875Y-3700729D01*
G37*
G36*
X7027367Y-3700729D02*
G01*
X7027367Y-3827424D01*
X7108850Y-3827424D01*
X7108850Y-3700729D01*
G37*
G36*
X7163206Y-3700729D02*
G01*
X7163206Y-3827424D01*
X7249210Y-3827424D01*
X7249210Y-3700729D01*
G37*
G36*
X7303566Y-3700729D02*
G01*
X7303566Y-3827424D01*
X7385050Y-3827424D01*
X7385050Y-3700729D01*
G37*
G36*
X6266484Y-3718814D02*
G01*
X6269024Y-3847795D01*
X6352794Y-3850386D01*
X6352794Y-3718814D01*
G37*
G36*
X6683044Y-3718814D02*
G01*
X6685534Y-3847795D01*
X6767017Y-3847795D01*
X6769557Y-3718814D01*
G37*
G36*
X5162042Y-3818382D02*
G01*
X5162042Y-3945077D01*
X5248046Y-3945077D01*
X5248046Y-3818382D01*
G37*
G36*
X5302402Y-3818382D02*
G01*
X5302402Y-3945077D01*
X5388406Y-3945077D01*
X5388406Y-3818382D01*
G37*
G36*
X8209076Y-3818382D02*
G01*
X8209076Y-3945077D01*
X8295081Y-3945077D01*
X8295081Y-3818382D01*
G37*
G36*
X8485225Y-3818382D02*
G01*
X8485225Y-3945077D01*
X8571280Y-3945077D01*
X8571280Y-3818382D01*
G37*
G36*
X8625586Y-3818382D02*
G01*
X8625586Y-3945077D01*
X8707069Y-3945077D01*
X8707069Y-3818382D01*
G37*
G36*
X5650992Y-3899814D02*
G01*
X5650992Y-4026560D01*
X5732526Y-4026560D01*
X5732526Y-3899814D01*
G37*
G36*
X5786831Y-3899814D02*
G01*
X5786831Y-4026560D01*
X5872835Y-4026560D01*
X5872835Y-3899814D01*
G37*
G36*
X5927191Y-3899814D02*
G01*
X5927191Y-4026560D01*
X6008674Y-4026560D01*
X6008674Y-3899814D01*
G37*
G36*
X7643114Y-3899814D02*
G01*
X7643114Y-4026560D01*
X7729118Y-4026560D01*
X7729118Y-3899814D01*
G37*
G36*
X7783474Y-3899814D02*
G01*
X7783474Y-4026560D01*
X7869478Y-4026560D01*
X7869478Y-3899814D01*
G37*
G36*
X7923834Y-3899814D02*
G01*
X7923834Y-4026560D01*
X8005318Y-4026560D01*
X8005318Y-3899814D01*
G37*
G36*
X7027367Y-3908907D02*
G01*
X7027367Y-4035602D01*
X7108850Y-4035602D01*
X7108850Y-3908907D01*
G37*
G36*
X7163206Y-3908907D02*
G01*
X7163206Y-4035602D01*
X7249210Y-4035602D01*
X7249210Y-3908907D01*
G37*
G36*
X6266484Y-3926992D02*
G01*
X6269024Y-4055973D01*
X6350508Y-4055973D01*
X6352997Y-3926992D01*
G37*
G36*
X6683044Y-3926992D02*
G01*
X6685534Y-4055973D01*
X6767017Y-4055973D01*
X6769557Y-3926992D01*
G37*
G36*
X5162042Y-4026560D02*
G01*
X5162042Y-4153255D01*
X5248046Y-4153255D01*
X5248046Y-4026560D01*
G37*
G36*
X5302402Y-4026560D02*
G01*
X5302402Y-4153255D01*
X5388406Y-4153255D01*
X5388406Y-4026560D01*
G37*
G36*
X8209076Y-4026560D02*
G01*
X8209076Y-4153255D01*
X8295081Y-4153255D01*
X8295081Y-4026560D01*
G37*
G36*
X8625586Y-4026560D02*
G01*
X8625586Y-4153255D01*
X8707069Y-4153255D01*
X8707069Y-4026560D01*
G37*
G36*
X544271Y-4071823D02*
G01*
X534924Y-4089298D01*
X534924Y-4174896D01*
X589229Y-4174896D01*
X589229Y-4152646D01*
X598881Y-4134662D01*
X618693Y-4126484D01*
X641299Y-4130954D01*
X661670Y-4153763D01*
X661670Y-4172051D01*
X634136Y-4199585D01*
X605078Y-4193946D01*
X589229Y-4174896D01*
X534924Y-4174896D01*
X534924Y-4225696D01*
X752246Y-4225696D01*
X752246Y-4248302D01*
X760323Y-4248302D01*
X764946Y-4236262D01*
X795223Y-4221378D01*
X836015Y-4221175D01*
X867359Y-4236974D01*
X885799Y-4268673D01*
X888796Y-4425238D01*
X826922Y-4422546D01*
X822401Y-4290364D01*
X810006Y-4275429D01*
X780389Y-4275429D01*
X759002Y-4292752D01*
X756107Y-4425188D01*
X695655Y-4422546D01*
X693216Y-4225696D01*
X657148Y-4225696D01*
X657148Y-4424781D01*
X593750Y-4424781D01*
X593750Y-4225696D01*
X534924Y-4225696D01*
X534924Y-4469384D01*
X549148Y-4483608D01*
X931062Y-4483506D01*
X941019Y-4476851D01*
X951433Y-4457090D01*
X951433Y-4098340D01*
X941019Y-4078579D01*
X931062Y-4071924D01*
G37*
G36*
X7649464Y-4103166D02*
G01*
X7643114Y-4109516D01*
X7643114Y-4234738D01*
X7729372Y-4234738D01*
X7726883Y-4105757D01*
G37*
G36*
X7783474Y-4103166D02*
G01*
X7783474Y-4234738D01*
X7869732Y-4234738D01*
X7867243Y-4105757D01*
G37*
G36*
X5927191Y-4103471D02*
G01*
X5927191Y-4234738D01*
X6008674Y-4234738D01*
X6008674Y-4103471D01*
G37*
G36*
X7027367Y-4117035D02*
G01*
X7027367Y-4243781D01*
X7108850Y-4243781D01*
X7108850Y-4117035D01*
G37*
G36*
X7163206Y-4117035D02*
G01*
X7163206Y-4243781D01*
X7249210Y-4243781D01*
X7249210Y-4117035D01*
G37*
G36*
X7303566Y-4117035D02*
G01*
X7303566Y-4243781D01*
X7385050Y-4243781D01*
X7385050Y-4117035D01*
G37*
G36*
X6407099Y-4135170D02*
G01*
X6407099Y-4261866D01*
X6488582Y-4261866D01*
X6488582Y-4135170D01*
G37*
G36*
X6547459Y-4135170D02*
G01*
X6547459Y-4261866D01*
X6628942Y-4261866D01*
X6628942Y-4135170D01*
G37*
G36*
X6683298Y-4135170D02*
G01*
X6683298Y-4261866D01*
X6769303Y-4261866D01*
X6769303Y-4135170D01*
G37*
G36*
X1477162Y-4180433D02*
G01*
X1473250Y-4187190D01*
X1438910Y-4329785D01*
X1445107Y-4335932D01*
X1452930Y-4327499D01*
X1485798Y-4187190D01*
X1485696Y-4180433D01*
G37*
G36*
X1540814Y-4180433D02*
G01*
X1508048Y-4318457D01*
X1503172Y-4334306D01*
X1516532Y-4334306D01*
X1549704Y-4196232D01*
X1554226Y-4180433D01*
G37*
G36*
X2853537Y-4180433D02*
G01*
X2849575Y-4187190D01*
X2815285Y-4329785D01*
X2821482Y-4335932D01*
X2829306Y-4327499D01*
X2862173Y-4187190D01*
X2862072Y-4180433D01*
G37*
G36*
X3040583Y-4180433D02*
G01*
X3005582Y-4322978D01*
X3001467Y-4334306D01*
X3014878Y-4334306D01*
X3052216Y-4185107D01*
X3052216Y-4180433D01*
G37*
G36*
X1055573Y-4207560D02*
G01*
X1055573Y-4311650D01*
X1069136Y-4311650D01*
X1069136Y-4261307D01*
X1078534Y-4243781D01*
X1099769Y-4243781D01*
X1109421Y-4255414D01*
X1112164Y-4308703D01*
X1123492Y-4312412D01*
X1123492Y-4249724D01*
X1106932Y-4234738D01*
X1080008Y-4234738D01*
X1069136Y-4245610D01*
X1069136Y-4207560D01*
G37*
G36*
X1942947Y-4207560D02*
G01*
X1942947Y-4311650D01*
X1956562Y-4311650D01*
X1956562Y-4207560D01*
G37*
G36*
X1974646Y-4207560D02*
G01*
X1974646Y-4221835D01*
X1989785Y-4218889D01*
X1993544Y-4207560D01*
G37*
G36*
X2101443Y-4207560D02*
G01*
X2101443Y-4311650D01*
X2110486Y-4311650D01*
X2110486Y-4278122D01*
X2144826Y-4311650D01*
X2155748Y-4311650D01*
X2155748Y-4305249D01*
X2123948Y-4272686D01*
X2156460Y-4234738D01*
X2142286Y-4234738D01*
X2110740Y-4268673D01*
X2110486Y-4207560D01*
G37*
G36*
X2314244Y-4207560D02*
G01*
X2314244Y-4245610D01*
X2303373Y-4234738D01*
X2278735Y-4234738D01*
X2264105Y-4240326D01*
X2250084Y-4267403D01*
X2254197Y-4283862D01*
X2264410Y-4283862D01*
X2264410Y-4261866D01*
X2282545Y-4243781D01*
X2297684Y-4243781D01*
X2314244Y-4258767D01*
X2314244Y-4287215D01*
X2303373Y-4298086D01*
X2278634Y-4298086D01*
X2264410Y-4283862D01*
X2254197Y-4283862D01*
X2256028Y-4291279D01*
X2275078Y-4311650D01*
X2296718Y-4311650D01*
X2313686Y-4302607D01*
X2319274Y-4311650D01*
X2327808Y-4311650D01*
X2327808Y-4207560D01*
G37*
G36*
X2350465Y-4207560D02*
G01*
X2350465Y-4221124D01*
X2364028Y-4221124D01*
X2364028Y-4207560D01*
G37*
G36*
X2879394Y-4207560D02*
G01*
X2883204Y-4218889D01*
X2898292Y-4221835D01*
X2898292Y-4207560D01*
G37*
G36*
X3224276Y-4207560D02*
G01*
X3224276Y-4244086D01*
X3206750Y-4234738D01*
X3183077Y-4234738D01*
X3160877Y-4256938D01*
X3160956Y-4280560D01*
X3174441Y-4280560D01*
X3174441Y-4260342D01*
X3189427Y-4243781D01*
X3207715Y-4243781D01*
X3224276Y-4258767D01*
X3224276Y-4287215D01*
X3213404Y-4298086D01*
X3183839Y-4298086D01*
X3174441Y-4280560D01*
X3160956Y-4280560D01*
X3174644Y-4307027D01*
X3198672Y-4313021D01*
X3224276Y-4303420D01*
X3224276Y-4311650D01*
X3237839Y-4311650D01*
X3237839Y-4207560D01*
G37*
G36*
X3477818Y-4207560D02*
G01*
X3477818Y-4312412D01*
X3489096Y-4308703D01*
X3491890Y-4255414D01*
X3501542Y-4243781D01*
X3522776Y-4243781D01*
X3532124Y-4261307D01*
X3532124Y-4311650D01*
X3545738Y-4311650D01*
X3545738Y-4254855D01*
X3530904Y-4233672D01*
X3491382Y-4238142D01*
X3491382Y-4207560D01*
G37*
G36*
X3690315Y-4207560D02*
G01*
X3692855Y-4308652D01*
X3704183Y-4312412D01*
X3704183Y-4258005D01*
X3718407Y-4243781D01*
X3735374Y-4243781D01*
X3749446Y-4263898D01*
X3749446Y-4311650D01*
X3758488Y-4311650D01*
X3758488Y-4249724D01*
X3741928Y-4234738D01*
X3715054Y-4234738D01*
X3704183Y-4245610D01*
X3704183Y-4207560D01*
G37*
G36*
X3930548Y-4207560D02*
G01*
X3930548Y-4243781D01*
X3922014Y-4243781D01*
X3916426Y-4234738D01*
X3885285Y-4234738D01*
X3867150Y-4252823D01*
X3867150Y-4276394D01*
X3875786Y-4276394D01*
X3881780Y-4252722D01*
X3896614Y-4244035D01*
X3908501Y-4243781D01*
X3924960Y-4252569D01*
X3930954Y-4276394D01*
X3916781Y-4298086D01*
X3890010Y-4298086D01*
X3875786Y-4276394D01*
X3867150Y-4276394D01*
X3867150Y-4292904D01*
X3891026Y-4311650D01*
X3910431Y-4311650D01*
X3930548Y-4297578D01*
X3930548Y-4312412D01*
X3941876Y-4308652D01*
X3944416Y-4207560D01*
G37*
G36*
X4224832Y-4207560D02*
G01*
X4224832Y-4311650D01*
X4233875Y-4311650D01*
X4233875Y-4280001D01*
X4238701Y-4280001D01*
X4266539Y-4311650D01*
X4279188Y-4311650D01*
X4279188Y-4304385D01*
X4247692Y-4273854D01*
X4279798Y-4234738D01*
X4265726Y-4234738D01*
X4234129Y-4268673D01*
X4233875Y-4207560D01*
G37*
G36*
X4292447Y-4207560D02*
G01*
X4295038Y-4308652D01*
X4306316Y-4312412D01*
X4306316Y-4278122D01*
X4341723Y-4312666D01*
X4352036Y-4309262D01*
X4318711Y-4270298D01*
X4353458Y-4234738D01*
X4335780Y-4234738D01*
X4306671Y-4268673D01*
X4306316Y-4207560D01*
G37*
G36*
X4460290Y-4207560D02*
G01*
X4460290Y-4312412D01*
X4471568Y-4308652D01*
X4474159Y-4207560D01*
G37*
G36*
X1146149Y-4216603D02*
G01*
X1146149Y-4233976D01*
X1134821Y-4239260D01*
X1146149Y-4244543D01*
X1146149Y-4297426D01*
X1160373Y-4311650D01*
X1177290Y-4311650D01*
X1182878Y-4302607D01*
X1159713Y-4293768D01*
X1159713Y-4243781D01*
X1182370Y-4243781D01*
X1182370Y-4234738D01*
X1159713Y-4234738D01*
X1159713Y-4216603D01*
G37*
G36*
X1200454Y-4216603D02*
G01*
X1200454Y-4234738D01*
X1186891Y-4234738D01*
X1186891Y-4242816D01*
X1200454Y-4247997D01*
X1200454Y-4306976D01*
X1223772Y-4312818D01*
X1233627Y-4302963D01*
X1209497Y-4293768D01*
X1209497Y-4243781D01*
X1232154Y-4243781D01*
X1232154Y-4234738D01*
X1209497Y-4234738D01*
X1209497Y-4216603D01*
G37*
G36*
X3645306Y-4216603D02*
G01*
X3645306Y-4233976D01*
X3633978Y-4239260D01*
X3645306Y-4244543D01*
X3645306Y-4300778D01*
X3656177Y-4311650D01*
X3677005Y-4311650D01*
X3677005Y-4298086D01*
X3658920Y-4298086D01*
X3658920Y-4243781D01*
X3677005Y-4243781D01*
X3677005Y-4234738D01*
X3658920Y-4234738D01*
X3658920Y-4216603D01*
G37*
G36*
X2047697Y-4231182D02*
G01*
X2024481Y-4243222D01*
X2024481Y-4234738D01*
X2010867Y-4234738D01*
X2010867Y-4311650D01*
X2024481Y-4311650D01*
X2024481Y-4254652D01*
X2035352Y-4243781D01*
X2054352Y-4243781D01*
X2065223Y-4254652D01*
X2065223Y-4311650D01*
X2078786Y-4311650D01*
X2078786Y-4254855D01*
X2065477Y-4235856D01*
G37*
G36*
X2959404Y-4231792D02*
G01*
X2941269Y-4235704D01*
X2929991Y-4244898D01*
X2929991Y-4234738D01*
X2916377Y-4234738D01*
X2916377Y-4311650D01*
X2929991Y-4311650D01*
X2929991Y-4259072D01*
X2941777Y-4242917D01*
X2963722Y-4246016D01*
X2975102Y-4268673D01*
X2975254Y-4311650D01*
X2984296Y-4311650D01*
X2984296Y-4249724D01*
X2968447Y-4236110D01*
G37*
G36*
X2425141Y-4231995D02*
G01*
X2407056Y-4235704D01*
X2395728Y-4244898D01*
X2395728Y-4234738D01*
X2386685Y-4234738D01*
X2386685Y-4311650D01*
X2395728Y-4311650D01*
X2395728Y-4263898D01*
X2409799Y-4243781D01*
X2426766Y-4243781D01*
X2440990Y-4258005D01*
X2440990Y-4312412D01*
X2452319Y-4308703D01*
X2455062Y-4267200D01*
X2442006Y-4236059D01*
G37*
G36*
X1778914Y-4233621D02*
G01*
X1771142Y-4246016D01*
X1760423Y-4293616D01*
X1755089Y-4288332D01*
X1740763Y-4236974D01*
X1726895Y-4234281D01*
X1710080Y-4293057D01*
X1705254Y-4288282D01*
X1691690Y-4237685D01*
X1680362Y-4233976D01*
X1680362Y-4246524D01*
X1701596Y-4309414D01*
X1713585Y-4309414D01*
X1733245Y-4250537D01*
X1750822Y-4309414D01*
X1764131Y-4309414D01*
X1787499Y-4236974D01*
G37*
G36*
X1793544Y-4233976D02*
G01*
X1793595Y-4241495D01*
X1814322Y-4309364D01*
X1828038Y-4312005D01*
X1846275Y-4250537D01*
X1864207Y-4309364D01*
X1877872Y-4312005D01*
X1901037Y-4234738D01*
X1889302Y-4234738D01*
X1871776Y-4295800D01*
X1854200Y-4237024D01*
X1840230Y-4234332D01*
X1822196Y-4295800D01*
X1804568Y-4237634D01*
G37*
G36*
X1563065Y-4234129D02*
G01*
X1588363Y-4309414D01*
X1600860Y-4309414D01*
X1618488Y-4250537D01*
X1638147Y-4309414D01*
X1650136Y-4309414D01*
X1675231Y-4234738D01*
X1662328Y-4234738D01*
X1647189Y-4289044D01*
X1641093Y-4289044D01*
X1626006Y-4234738D01*
X1612950Y-4234738D01*
X1597660Y-4289044D01*
X1591614Y-4289044D01*
X1578051Y-4237024D01*
G37*
G36*
X1350975Y-4234230D02*
G01*
X1336294Y-4248962D01*
X1336395Y-4259630D01*
X1343507Y-4270756D01*
X1379270Y-4283151D01*
X1379270Y-4295698D01*
X1362252Y-4299000D01*
X1340815Y-4287520D01*
X1334008Y-4294327D01*
X1355394Y-4311650D01*
X1377035Y-4311650D01*
X1395120Y-4293565D01*
X1395120Y-4285132D01*
X1381658Y-4271670D01*
X1349349Y-4261002D01*
X1352245Y-4246118D01*
X1368653Y-4242968D01*
X1386128Y-4258818D01*
X1392580Y-4252417D01*
X1382928Y-4236974D01*
G37*
G36*
X1245717Y-4234738D02*
G01*
X1245717Y-4287215D01*
X1259332Y-4287215D01*
X1259332Y-4260342D01*
X1274318Y-4243781D01*
X1292555Y-4243781D01*
X1309116Y-4258767D01*
X1309116Y-4280560D01*
X1299768Y-4298086D01*
X1270203Y-4298086D01*
X1259332Y-4287215D01*
X1245717Y-4287215D01*
X1245717Y-4347870D01*
X1259332Y-4347870D01*
X1259332Y-4302607D01*
X1267815Y-4302607D01*
X1273454Y-4311650D01*
X1294790Y-4311650D01*
X1309471Y-4306062D01*
X1322679Y-4280408D01*
X1322679Y-4256938D01*
X1300480Y-4234738D01*
X1276807Y-4234738D01*
X1259332Y-4244086D01*
X1259332Y-4234738D01*
G37*
G36*
X1408074Y-4234738D02*
G01*
X1410970Y-4248759D01*
X1419910Y-4250537D01*
X1422958Y-4234738D01*
G37*
G36*
X1979168Y-4234738D02*
G01*
X1979168Y-4311650D01*
X1988261Y-4311650D01*
X1988261Y-4234738D01*
G37*
G36*
X2218131Y-4234738D02*
G01*
X2189734Y-4234992D01*
X2174544Y-4243832D01*
X2167861Y-4264152D01*
X2178151Y-4264152D01*
X2192477Y-4243781D01*
X2213203Y-4243781D01*
X2229662Y-4261916D01*
X2224684Y-4266895D01*
X2178151Y-4264152D01*
X2167861Y-4264152D01*
X2164537Y-4274159D01*
X2173325Y-4297172D01*
X2194001Y-4311650D01*
X2219147Y-4311650D01*
X2237282Y-4293565D01*
X2237282Y-4284522D01*
X2229307Y-4284522D01*
X2218029Y-4298086D01*
X2187752Y-4298086D01*
X2178405Y-4280560D01*
X2178405Y-4275429D01*
X2241956Y-4275429D01*
X2236317Y-4250537D01*
G37*
G36*
X2350465Y-4234738D02*
G01*
X2350465Y-4311650D01*
X2364028Y-4311650D01*
X2364028Y-4234738D01*
G37*
G36*
X2517952Y-4234738D02*
G01*
X2499868Y-4252823D01*
X2499868Y-4292904D01*
X2523693Y-4311650D01*
X2549652Y-4311650D01*
X2567787Y-4293565D01*
X2567787Y-4284522D01*
X2555138Y-4284522D01*
X2549753Y-4298645D01*
X2515971Y-4295800D01*
X2507691Y-4266692D01*
X2522728Y-4243781D01*
X2544013Y-4243781D01*
X2555290Y-4257344D01*
X2567787Y-4257344D01*
X2567787Y-4249724D01*
X2551226Y-4234738D01*
G37*
G36*
X2605989Y-4234738D02*
G01*
X2586228Y-4248556D01*
X2580538Y-4279036D01*
X2581351Y-4280560D01*
X2594914Y-4280560D01*
X2594914Y-4260342D01*
X2609900Y-4243781D01*
X2628188Y-4243781D01*
X2644749Y-4258767D01*
X2644749Y-4283862D01*
X2630525Y-4298086D01*
X2604312Y-4298086D01*
X2594914Y-4280560D01*
X2581351Y-4280560D01*
X2591866Y-4300321D01*
X2606243Y-4311396D01*
X2631846Y-4311650D01*
X2658313Y-4285183D01*
X2658313Y-4256938D01*
X2636113Y-4234738D01*
G37*
G36*
X2676448Y-4234738D02*
G01*
X2676448Y-4311650D01*
X2685491Y-4311650D01*
X2685491Y-4263898D01*
X2699562Y-4243781D01*
X2716530Y-4243781D01*
X2730754Y-4258005D01*
X2730754Y-4312412D01*
X2742082Y-4308703D01*
X2744825Y-4255414D01*
X2754528Y-4243781D01*
X2775712Y-4243781D01*
X2785110Y-4261307D01*
X2785110Y-4311650D01*
X2798673Y-4311650D01*
X2798673Y-4261307D01*
X2788259Y-4241495D01*
X2778302Y-4234840D01*
X2749956Y-4234738D01*
X2738932Y-4248048D01*
X2725572Y-4234738D01*
X2696362Y-4234738D01*
X2685491Y-4245610D01*
X2685491Y-4234738D01*
G37*
G36*
X2884678Y-4234738D02*
G01*
X2884678Y-4312412D01*
X2896006Y-4308652D01*
X2898648Y-4234738D01*
G37*
G36*
X3090164Y-4234738D02*
G01*
X3075279Y-4246016D01*
X3066389Y-4269943D01*
X3069769Y-4283862D01*
X3079394Y-4283862D01*
X3079394Y-4261866D01*
X3097479Y-4243781D01*
X3113328Y-4243933D01*
X3124098Y-4250740D01*
X3132988Y-4274108D01*
X3122168Y-4295800D01*
X3094075Y-4298594D01*
X3079394Y-4283862D01*
X3069769Y-4283862D01*
X3071571Y-4291279D01*
X3090011Y-4311650D01*
X3113582Y-4311650D01*
X3133699Y-4297578D01*
X3133699Y-4311650D01*
X3142742Y-4311650D01*
X3142742Y-4234738D01*
X3134461Y-4234738D01*
X3130296Y-4246016D01*
X3118307Y-4234738D01*
G37*
G36*
X3275634Y-4234738D02*
G01*
X3255975Y-4255668D01*
X3255975Y-4287215D01*
X3269538Y-4287215D01*
X3269538Y-4260342D01*
X3284524Y-4243781D01*
X3301237Y-4243781D01*
X3319322Y-4261866D01*
X3319322Y-4283862D01*
X3305098Y-4298086D01*
X3280410Y-4298086D01*
X3269538Y-4287215D01*
X3255975Y-4287215D01*
X3255975Y-4289450D01*
X3278174Y-4311650D01*
X3299206Y-4311650D01*
X3319322Y-4297578D01*
X3319322Y-4311650D01*
X3332937Y-4311650D01*
X3332937Y-4234738D01*
X3319322Y-4234738D01*
X3319322Y-4244086D01*
X3301796Y-4234738D01*
G37*
G36*
X3350666Y-4234738D02*
G01*
X3353308Y-4308652D01*
X3364636Y-4312412D01*
X3364636Y-4267149D01*
X3370376Y-4252112D01*
X3391763Y-4243984D01*
X3391763Y-4234738D01*
X3375456Y-4234738D01*
X3364636Y-4245610D01*
X3364636Y-4234738D01*
G37*
G36*
X3415080Y-4234738D02*
G01*
X3400806Y-4248962D01*
X3400806Y-4260494D01*
X3416655Y-4274261D01*
X3443833Y-4282998D01*
X3446779Y-4298086D01*
X3423361Y-4298086D01*
X3405784Y-4287113D01*
X3398570Y-4294327D01*
X3419957Y-4311650D01*
X3440582Y-4311650D01*
X3460851Y-4295241D01*
X3454755Y-4276039D01*
X3414420Y-4260646D01*
X3414420Y-4248912D01*
X3433165Y-4242968D01*
X3450132Y-4258259D01*
X3459835Y-4255058D01*
X3445611Y-4234738D01*
G37*
G36*
X3798824Y-4234738D02*
G01*
X3776624Y-4256938D01*
X3776624Y-4280408D01*
X3780122Y-4287215D01*
X3790187Y-4287215D01*
X3790187Y-4260342D01*
X3805174Y-4243781D01*
X3819855Y-4243781D01*
X3840022Y-4257852D01*
X3840022Y-4283862D01*
X3825748Y-4298086D01*
X3801059Y-4298086D01*
X3790187Y-4287215D01*
X3780122Y-4287215D01*
X3789883Y-4306062D01*
X3804513Y-4311650D01*
X3827119Y-4311650D01*
X3854704Y-4284065D01*
X3849319Y-4250537D01*
X3829964Y-4234738D01*
G37*
G36*
X3962247Y-4234738D02*
G01*
X3962247Y-4283913D01*
X3970985Y-4306874D01*
X3994607Y-4312818D01*
X4016248Y-4302963D01*
X4021632Y-4311650D01*
X4030167Y-4311650D01*
X4030167Y-4234738D01*
X4016552Y-4234738D01*
X4016552Y-4283760D01*
X4011066Y-4298086D01*
X3981297Y-4298086D01*
X3975811Y-4283760D01*
X3975811Y-4234738D01*
G37*
G36*
X4042968Y-4234738D02*
G01*
X4072991Y-4311650D01*
X4087977Y-4311650D01*
X4110837Y-4250537D01*
X4117136Y-4234738D01*
X4103420Y-4234738D01*
X4082287Y-4293565D01*
X4077614Y-4293565D01*
X4056481Y-4234738D01*
G37*
G36*
X4144010Y-4234738D02*
G01*
X4124350Y-4259630D01*
X4128049Y-4287215D01*
X4138828Y-4287215D01*
X4138828Y-4260342D01*
X4153814Y-4243781D01*
X4172051Y-4243781D01*
X4188612Y-4258767D01*
X4188612Y-4280560D01*
X4179265Y-4298086D01*
X4149699Y-4298086D01*
X4138828Y-4287215D01*
X4128049Y-4287215D01*
X4129176Y-4295749D01*
X4148886Y-4311650D01*
X4168495Y-4311650D01*
X4188612Y-4297578D01*
X4188612Y-4311650D01*
X4202176Y-4311650D01*
X4202176Y-4234738D01*
X4188612Y-4234738D01*
X4188612Y-4244086D01*
X4171086Y-4234738D01*
G37*
G36*
X4385310Y-4234738D02*
G01*
X4365548Y-4248556D01*
X4359859Y-4278884D01*
X4360724Y-4280560D01*
X4374235Y-4280560D01*
X4374235Y-4260342D01*
X4389221Y-4243781D01*
X4407509Y-4243781D01*
X4424070Y-4258767D01*
X4424070Y-4287215D01*
X4413199Y-4298086D01*
X4383633Y-4298086D01*
X4374235Y-4280560D01*
X4360724Y-4280560D01*
X4374388Y-4307027D01*
X4398467Y-4313021D01*
X4424070Y-4303420D01*
X4424070Y-4311650D01*
X4437634Y-4311650D01*
X4437634Y-4234738D01*
X4424070Y-4234738D01*
X4424070Y-4244086D01*
X4406544Y-4234738D01*
G37*
G36*
X5302402Y-4234738D02*
G01*
X5302402Y-4361434D01*
X5388406Y-4361434D01*
X5388406Y-4234738D01*
G37*
G36*
X8349386Y-4234738D02*
G01*
X8349386Y-4361434D01*
X8430920Y-4361434D01*
X8430920Y-4234738D01*
G37*
G36*
X8625586Y-4234738D02*
G01*
X8625586Y-4361434D01*
X8707069Y-4361434D01*
X8707069Y-4234738D01*
G37*
G36*
X3563823Y-4252823D02*
G01*
X3563823Y-4266387D01*
X3618179Y-4266387D01*
X3618179Y-4252823D01*
G37*
G36*
X1414272Y-4292752D02*
G01*
X1407718Y-4303420D01*
X1416761Y-4312462D01*
X1423314Y-4301794D01*
G37*
G36*
X1911299Y-4292803D02*
G01*
X1911299Y-4312412D01*
X1922576Y-4308652D01*
X1922576Y-4296562D01*
G37*
G36*
X2473248Y-4293565D02*
G01*
X2467152Y-4303420D01*
X2477211Y-4313478D01*
X2487320Y-4303420D01*
X2481224Y-4293565D01*
G37*
G36*
X5793181Y-4311345D02*
G01*
X5786831Y-4317695D01*
X5786831Y-4442917D01*
X5873089Y-4442917D01*
X5870600Y-4313936D01*
G37*
G36*
X5650992Y-4311650D02*
G01*
X5650992Y-4442917D01*
X5732526Y-4442917D01*
X5732526Y-4311650D01*
G37*
G36*
X5927191Y-4311650D02*
G01*
X5927191Y-4442917D01*
X6008674Y-4442917D01*
X6008674Y-4311650D01*
G37*
G36*
X7649159Y-4311650D02*
G01*
X7643114Y-4317695D01*
X7643114Y-4442917D01*
X7729118Y-4442917D01*
X7729118Y-4311650D01*
G37*
G36*
X7923834Y-4311650D02*
G01*
X7923834Y-4442917D01*
X8005318Y-4442917D01*
X8005318Y-4311650D01*
G37*
G36*
X7027367Y-4325213D02*
G01*
X7027367Y-4451959D01*
X7108850Y-4451959D01*
X7108850Y-4325213D01*
G37*
G36*
X7303566Y-4325213D02*
G01*
X7303566Y-4451959D01*
X7385050Y-4451959D01*
X7385050Y-4325213D01*
G37*
G36*
X6407099Y-4343349D02*
G01*
X6407099Y-4470044D01*
X6488582Y-4470044D01*
X6488582Y-4343349D01*
G37*
G36*
X6547459Y-4343349D02*
G01*
X6547459Y-4470044D01*
X6628942Y-4470044D01*
X6628942Y-4343349D01*
G37*
G36*
X6683298Y-4343349D02*
G01*
X6683298Y-4470044D01*
X6769303Y-4470044D01*
X6769303Y-4343349D01*
G37*
G36*
X5162042Y-4442917D02*
G01*
X5162042Y-4569612D01*
X5248046Y-4569612D01*
X5248046Y-4442917D01*
G37*
G36*
X5302402Y-4442917D02*
G01*
X5302402Y-4569612D01*
X5388406Y-4569612D01*
X5388406Y-4442917D01*
G37*
G36*
X8349386Y-4442917D02*
G01*
X8349386Y-4569612D01*
X8430920Y-4569612D01*
X8430920Y-4442917D01*
G37*
G36*
X8485225Y-4442917D02*
G01*
X8485225Y-4569612D01*
X8571280Y-4569612D01*
X8571280Y-4442917D01*
G37*
G36*
X8625586Y-4442917D02*
G01*
X8625586Y-4569612D01*
X8707069Y-4569612D01*
X8707069Y-4442917D01*
G37*
G36*
X5786831Y-4519828D02*
G01*
X5786831Y-4651095D01*
X5872835Y-4651095D01*
X5872835Y-4519828D01*
G37*
G36*
X5927191Y-4519828D02*
G01*
X5927191Y-4651095D01*
X6008674Y-4651095D01*
X6008674Y-4519828D01*
G37*
G36*
X7649159Y-4519828D02*
G01*
X7643114Y-4525873D01*
X7643114Y-4651095D01*
X7729118Y-4651095D01*
X7729118Y-4519828D01*
G37*
G36*
X7923834Y-4519828D02*
G01*
X7923834Y-4651095D01*
X8005318Y-4651095D01*
X8005318Y-4519828D01*
G37*
G36*
X7027367Y-4533392D02*
G01*
X7027367Y-4660138D01*
X7108850Y-4660138D01*
X7108850Y-4533392D01*
G37*
G36*
X7163206Y-4533392D02*
G01*
X7163206Y-4660138D01*
X7249210Y-4660138D01*
X7249210Y-4533392D01*
G37*
G36*
X6266738Y-4551527D02*
G01*
X6266738Y-4678222D01*
X6352794Y-4678222D01*
X6352794Y-4551527D01*
G37*
G36*
X5162042Y-4651095D02*
G01*
X5162042Y-4777790D01*
X5248046Y-4777790D01*
X5248046Y-4651095D01*
G37*
G36*
X5302402Y-4651095D02*
G01*
X5302402Y-4777790D01*
X5388406Y-4777790D01*
X5388406Y-4651095D01*
G37*
G36*
X8209076Y-4651095D02*
G01*
X8209076Y-4777790D01*
X8295081Y-4777790D01*
X8295081Y-4651095D01*
G37*
G36*
X8625586Y-4651095D02*
G01*
X8625586Y-4777790D01*
X8707069Y-4777790D01*
X8707069Y-4651095D01*
G37*
D10*
X688418Y-1961042D02*
G01*
X768416Y-1961042D01*
X632373Y-1960996D02*
G01*
X552376Y-1960996D01*
X688418Y-2103010D02*
G01*
X768416Y-2103010D01*
X632373Y-2102962D02*
G01*
X552376Y-2102962D01*
X799391Y-1992025D02*
G01*
X799391Y-2072030D01*
X521398Y-2071977D02*
G01*
X521398Y-1991974D01*
X8332000Y-500700D02*
G01*
X8372000Y-540699D01*
X8382000Y-550699D01*
X8392025Y-540699D01*
X8432025Y-500700D01*
X8332000Y-500700D02*
G01*
X8432025Y-500700D01*
X8483727Y-476377D02*
G01*
X8483727Y-321437D01*
X8280527Y-321437D01*
X8280527Y-476377D01*
X8486266Y-555117D02*
G01*
X8486266Y-702437D01*
X8445627Y-743077D01*
X8318627Y-743077D01*
X8280527Y-704977D01*
X8280527Y-552577D01*
D11*
X703021Y-1767860D02*
G01*
X798908Y-1767860D01*
X798908Y-1635739D01*
X703021Y-1635739D01*
X617778Y-1767860D02*
G01*
X521891Y-1767860D01*
X521891Y-1635739D01*
X617778Y-1635739D01*
D10*
X2576512Y-2117806D02*
G01*
X2576512Y-2131994D01*
X2509019Y-1931992D02*
G01*
X2576512Y-1931992D01*
X2576512Y-1946188D01*
X2376512Y-1946188D02*
G01*
X2376512Y-1931992D01*
X2444010Y-1931992D01*
X2376512Y-2131994D02*
G01*
X2376512Y-2117806D01*
X2444010Y-2131994D02*
G01*
X2376512Y-2131994D01*
X2576512Y-2131994D02*
G01*
X2509019Y-2131994D01*
G75*
G01*
X552381Y-2102963D02*
G02*
X521399Y-2071977I0J30983D01*
G75*
G01*
X521399Y-1991980D02*
G02*
X552381Y-1960997I30982J0D01*
G75*
G01*
X768411Y-1961043D02*
G02*
X799391Y-1992025I-3J-30982D01*
G75*
G01*
X799391Y-2072023D02*
G02*
X768411Y-2103011I-30983J-5D01*
G75*
G01
X2355853Y-1981233D02*
G03X2355853Y-1981233I-6350J0D01*
M02*
